<svg xmlns="http://www.w3.org/2000/svg" xmlns:xlink="http://www.w3.org/1999/xlink" width="1246.306" height="592.734" version="1.1" viewBox="0 0 934.729 444.55"><metadata><rdf:RDF xmlns:cc="http://creativecommons.org/ns#" xmlns:dc="http://purl.org/dc/elements/1.1/" xmlns:rdf="http://www.w3.org/1999/02/22-rdf-syntax-ns#"><cc:Work><dc:type rdf:resource="http://purl.org/dc/dcmitype/StillImage"/><dc:date>2022-04-01T12:18:53.373955</dc:date><dc:format>image/svg+xml</dc:format><dc:creator><cc:Agent><dc:title>Matplotlib v3.5.1, https://matplotlib.org/</dc:title></cc:Agent></dc:creator></cc:Work></rdf:RDF></metadata><defs><style type="text/css">*{stroke-linejoin:round;stroke-linecap:butt}</style></defs><g id="figure_1"><g id="patch_1"><path d="M 0 444.550311 L 934.729216 444.550311 L 934.729216 0 L 0 0 L 0 444.550311 z" style="fill:none"/></g><g id="axes_1"><g id="patch_2"><path d="M 51.854005 333.36 L 888.854005 333.36 L 888.854005 7.2 L 51.854005 7.2 z" style="fill:#fff"/></g><g id="patch_3"><path d="M 72.779005 333.36 L 81.149005 333.36 L 81.149005 266.331932 L 72.779005 266.331932 z" clip-path="url(#p5b275e39e9)" style="fill:#1f77b4"/></g><g id="patch_4"><path d="M 156.479005 333.36 L 164.849005 333.36 L 164.849005 266.331932 L 156.479005 266.331932 z" clip-path="url(#p5b275e39e9)" style="fill:#1f77b4"/></g><g id="patch_5"><path d="M 240.179005 333.36 L 248.549005 333.36 L 248.549005 266.331932 L 240.179005 266.331932 z" clip-path="url(#p5b275e39e9)" style="fill:#1f77b4"/></g><g id="patch_6"><path d="M 323.879005 333.36 L 332.249005 333.36 L 332.249005 266.331932 L 323.879005 266.331932 z" clip-path="url(#p5b275e39e9)" style="fill:#1f77b4"/></g><g id="patch_7"><path d="M 407.579005 333.36 L 415.949005 333.36 L 415.949005 266.331932 L 407.579005 266.331932 z" clip-path="url(#p5b275e39e9)" style="fill:#1f77b4"/></g><g id="patch_8"><path d="M 491.279005 333.36 L 499.649005 333.36 L 499.649005 266.331932 L 491.279005 266.331932 z" clip-path="url(#p5b275e39e9)" style="fill:#1f77b4"/></g><g id="patch_9"><path d="M 574.979005 333.36 L 583.349005 333.36 L 583.349005 266.331932 L 574.979005 266.331932 z" clip-path="url(#p5b275e39e9)" style="fill:#1f77b4"/></g><g id="patch_10"><path d="M 658.679005 333.36 L 667.049005 333.36 L 667.049005 266.331932 L 658.679005 266.331932 z" clip-path="url(#p5b275e39e9)" style="fill:#1f77b4"/></g><g id="patch_11"><path d="M 742.379005 333.36 L 750.749005 333.36 L 750.749005 266.331932 L 742.379005 266.331932 z" clip-path="url(#p5b275e39e9)" style="fill:#1f77b4"/></g><g id="patch_12"><path d="M 826.079005 333.36 L 834.449005 333.36 L 834.449005 266.331932 L 826.079005 266.331932 z" clip-path="url(#p5b275e39e9)" style="fill:#1f77b4"/></g><g id="patch_13"><path d="M 81.149005 333.36 L 89.519005 333.36 L 89.519005 249.719622 L 81.149005 249.719622 z" clip-path="url(#p5b275e39e9)" style="fill:#ff7f0e"/></g><g id="patch_14"><path d="M 164.849005 333.36 L 173.219005 333.36 L 173.219005 246.857793 L 164.849005 246.857793 z" clip-path="url(#p5b275e39e9)" style="fill:#ff7f0e"/></g><g id="patch_15"><path d="M 248.549005 333.36 L 256.919005 333.36 L 256.919005 262.214552 L 248.549005 262.214552 z" clip-path="url(#p5b275e39e9)" style="fill:#ff7f0e"/></g><g id="patch_16"><path d="M 332.249005 333.36 L 340.619005 333.36 L 340.619005 261.516177 L 332.249005 261.516177 z" clip-path="url(#p5b275e39e9)" style="fill:#ff7f0e"/></g><g id="patch_17"><path d="M 415.949005 333.36 L 424.319005 333.36 L 424.319005 262.983475 L 415.949005 262.983475 z" clip-path="url(#p5b275e39e9)" style="fill:#ff7f0e"/></g><g id="patch_18"><path d="M 499.649005 333.36 L 508.019005 333.36 L 508.019005 262.739185 L 499.649005 262.739185 z" clip-path="url(#p5b275e39e9)" style="fill:#ff7f0e"/></g><g id="patch_19"><path d="M 583.349005 333.36 L 591.719005 333.36 L 591.719005 262.983657 L 583.349005 262.983657 z" clip-path="url(#p5b275e39e9)" style="fill:#ff7f0e"/></g><g id="patch_20"><path d="M 667.049005 333.36 L 675.419005 333.36 L 675.419005 263.257754 L 667.049005 263.257754 z" clip-path="url(#p5b275e39e9)" style="fill:#ff7f0e"/></g><g id="patch_21"><path d="M 750.749005 333.36 L 759.119005 333.36 L 759.119005 262.932651 L 750.749005 262.932651 z" clip-path="url(#p5b275e39e9)" style="fill:#ff7f0e"/></g><g id="patch_22"><path d="M 834.449005 333.36 L 842.819005 333.36 L 842.819005 262.988516 L 834.449005 262.988516 z" clip-path="url(#p5b275e39e9)" style="fill:#ff7f0e"/></g><g id="patch_23"><path d="M 89.519005 333.36 L 97.889005 333.36 L 97.889005 220.148505 L 89.519005 220.148505 z" clip-path="url(#p5b275e39e9)" style="fill:#2ca02c"/></g><g id="patch_24"><path d="M 173.219005 333.36 L 181.589005 333.36 L 181.589005 220.130678 L 173.219005 220.130678 z" clip-path="url(#p5b275e39e9)" style="fill:#2ca02c"/></g><g id="patch_25"><path d="M 256.919005 333.36 L 265.289005 333.36 L 265.289005 245.369971 L 256.919005 245.369971 z" clip-path="url(#p5b275e39e9)" style="fill:#2ca02c"/></g><g id="patch_26"><path d="M 340.619005 333.36 L 348.989005 333.36 L 348.989005 245.260342 L 340.619005 245.260342 z" clip-path="url(#p5b275e39e9)" style="fill:#2ca02c"/></g><g id="patch_27"><path d="M 424.319005 333.36 L 432.689005 333.36 L 432.689005 238.382395 L 424.319005 238.382395 z" clip-path="url(#p5b275e39e9)" style="fill:#2ca02c"/></g><g id="patch_28"><path d="M 508.019005 333.36 L 516.389005 333.36 L 516.389005 238.594216 L 508.019005 238.594216 z" clip-path="url(#p5b275e39e9)" style="fill:#2ca02c"/></g><g id="patch_29"><path d="M 591.719005 333.36 L 600.089005 333.36 L 600.089005 240.989648 L 591.719005 240.989648 z" clip-path="url(#p5b275e39e9)" style="fill:#2ca02c"/></g><g id="patch_30"><path d="M 675.419005 333.36 L 683.789005 333.36 L 683.789005 239.200638 L 675.419005 239.200638 z" clip-path="url(#p5b275e39e9)" style="fill:#2ca02c"/></g><g id="patch_31"><path d="M 759.119005 333.36 L 767.489005 333.36 L 767.489005 241.822807 L 759.119005 241.822807 z" clip-path="url(#p5b275e39e9)" style="fill:#2ca02c"/></g><g id="patch_32"><path d="M 842.819005 333.36 L 851.189005 333.36 L 851.189005 239.521868 L 842.819005 239.521868 z" clip-path="url(#p5b275e39e9)" style="fill:#2ca02c"/></g><g id="patch_33"><path d="M 97.889005 333.36 L 106.259005 333.36 L 106.259005 136.144449 L 97.889005 136.144449 z" clip-path="url(#p5b275e39e9)" style="fill:#d62728"/></g><g id="patch_34"><path d="M 181.589005 333.36 L 189.959005 333.36 L 189.959005 144.85794 L 181.589005 144.85794 z" clip-path="url(#p5b275e39e9)" style="fill:#d62728"/></g><g id="patch_35"><path d="M 265.289005 333.36 L 273.659005 333.36 L 273.659005 195.643198 L 265.289005 195.643198 z" clip-path="url(#p5b275e39e9)" style="fill:#d62728"/></g><g id="patch_36"><path d="M 348.989005 333.36 L 357.359005 333.36 L 357.359005 195.894277 L 348.989005 195.894277 z" clip-path="url(#p5b275e39e9)" style="fill:#d62728"/></g><g id="patch_37"><path d="M 432.689005 333.36 L 441.059005 333.36 L 441.059005 201.360514 L 432.689005 201.360514 z" clip-path="url(#p5b275e39e9)" style="fill:#d62728"/></g><g id="patch_38"><path d="M 516.389005 333.36 L 524.759005 333.36 L 524.759005 200.42079 L 516.389005 200.42079 z" clip-path="url(#p5b275e39e9)" style="fill:#d62728"/></g><g id="patch_39"><path d="M 600.089005 333.36 L 608.459005 333.36 L 608.459005 206.857281 L 600.089005 206.857281 z" clip-path="url(#p5b275e39e9)" style="fill:#d62728"/></g><g id="patch_40"><path d="M 683.789005 333.36 L 692.159005 333.36 L 692.159005 207.42469 L 683.789005 207.42469 z" clip-path="url(#p5b275e39e9)" style="fill:#d62728"/></g><g id="patch_41"><path d="M 767.489005 333.36 L 775.859005 333.36 L 775.859005 206.939254 L 767.489005 206.939254 z" clip-path="url(#p5b275e39e9)" style="fill:#d62728"/></g><g id="patch_42"><path d="M 851.189005 333.36 L 859.559005 333.36 L 859.559005 205.788607 L 851.189005 205.788607 z" clip-path="url(#p5b275e39e9)" style="fill:#d62728"/></g><g id="patch_43"><path d="M 106.259005 333.36 L 114.629005 333.36 L 114.629005 22.731429 L 106.259005 22.731429 z" clip-path="url(#p5b275e39e9)" style="fill:#9467bd"/></g><g id="patch_44"><path d="M 189.959005 333.36 L 198.329005 333.36 L 198.329005 55.795514 L 189.959005 55.795514 z" clip-path="url(#p5b275e39e9)" style="fill:#9467bd"/></g><g id="patch_45"><path d="M 273.659005 333.36 L 282.029005 333.36 L 282.029005 58.885459 L 273.659005 58.885459 z" clip-path="url(#p5b275e39e9)" style="fill:#9467bd"/></g><g id="patch_46"><path d="M 357.359005 333.36 L 365.729005 333.36 L 365.729005 61.380725 L 357.359005 61.380725 z" clip-path="url(#p5b275e39e9)" style="fill:#9467bd"/></g><g id="patch_47"><path d="M 441.059005 333.36 L 449.429005 333.36 L 449.429005 83.735532 L 441.059005 83.735532 z" clip-path="url(#p5b275e39e9)" style="fill:#9467bd"/></g><g id="patch_48"><path d="M 524.759005 333.36 L 533.129005 333.36 L 533.129005 85.252441 L 524.759005 85.252441 z" clip-path="url(#p5b275e39e9)" style="fill:#9467bd"/></g><g id="patch_49"><path d="M 608.459005 333.36 L 616.829005 333.36 L 616.829005 90.835363 L 608.459005 90.835363 z" clip-path="url(#p5b275e39e9)" style="fill:#9467bd"/></g><g id="patch_50"><path d="M 692.159005 333.36 L 700.529005 333.36 L 700.529005 91.213167 L 692.159005 91.213167 z" clip-path="url(#p5b275e39e9)" style="fill:#9467bd"/></g><g id="patch_51"><path d="M 775.859005 333.36 L 784.229005 333.36 L 784.229005 91.303628 L 775.859005 91.303628 z" clip-path="url(#p5b275e39e9)" style="fill:#9467bd"/></g><g id="patch_52"><path d="M 859.559005 333.36 L 867.929005 333.36 L 867.929005 91.378739 L 859.559005 91.378739 z" clip-path="url(#p5b275e39e9)" style="fill:#9467bd"/></g><g id="matplotlib.axis_1"><g id="xtick_1"><g id="line2d_1"><defs><path id="m7ad33f5c60" d="M 0 0 L 0 3.5" style="stroke:#000;stroke-width:.8"/></defs><g><use x="93.704" y="333.36" xlink:href="#m7ad33f5c60" style="stroke:#000;stroke-width:.8"/></g></g><g id="text_1"><g transform="translate(9.798819 409.230556)rotate(-20)scale(0.1 -0.1)"><defs><path id="DejaVuSans-28" d="M 1984 4856 Q 1566 4138 1362 3434 Q 1159 2731 1159 2009 Q 1159 1288 1364 580 Q 1569 -128 1984 -844 L 1484 -844 Q 1016 -109 783 600 Q 550 1309 550 2009 Q 550 2706 781 3412 Q 1013 4119 1484 4856 L 1984 4856 z" transform="scale(0.015625)"/><path id="DejaVuSans-4e" d="M 628 4666 L 1478 4666 L 3547 763 L 3547 4666 L 4159 4666 L 4159 0 L 3309 0 L 1241 3903 L 1241 0 L 628 0 L 628 4666 z" transform="scale(0.015625)"/><path id="DejaVuSans-31" d="M 794 531 L 1825 531 L 1825 4091 L 703 3866 L 703 4441 L 1819 4666 L 2450 4666 L 2450 531 L 3481 531 L 3481 0 L 794 0 L 794 531 z" transform="scale(0.015625)"/><path id="DejaVuSans-30" d="M 2034 4250 Q 1547 4250 1301 3770 Q 1056 3291 1056 2328 Q 1056 1369 1301 889 Q 1547 409 2034 409 Q 2525 409 2770 889 Q 3016 1369 3016 2328 Q 3016 3291 2770 3770 Q 2525 4250 2034 4250 z M 2034 4750 Q 2819 4750 3233 4129 Q 3647 3509 3647 2328 Q 3647 1150 3233 529 Q 2819 -91 2034 -91 Q 1250 -91 836 529 Q 422 1150 422 2328 Q 422 3509 836 4129 Q 1250 4750 2034 4750 z" transform="scale(0.015625)"/><path id="DejaVuSans-37" d="M 525 4666 L 3525 4666 L 3525 4397 L 1831 0 L 1172 0 L 2766 4134 L 525 4134 L 525 4666 z" transform="scale(0.015625)"/><path id="DejaVuSans-5f" d="M 3263 -1063 L 3263 -1509 L -63 -1509 L -63 -1063 L 3263 -1063 z" transform="scale(0.015625)"/><path id="DejaVuSans-53" d="M 3425 4513 L 3425 3897 Q 3066 4069 2747 4153 Q 2428 4238 2131 4238 Q 1616 4238 1336 4038 Q 1056 3838 1056 3469 Q 1056 3159 1242 3001 Q 1428 2844 1947 2747 L 2328 2669 Q 3034 2534 3370 2195 Q 3706 1856 3706 1288 Q 3706 609 3251 259 Q 2797 -91 1919 -91 Q 1588 -91 1214 -16 Q 841 59 441 206 L 441 856 Q 825 641 1194 531 Q 1563 422 1919 422 Q 2459 422 2753 634 Q 3047 847 3047 1241 Q 3047 1584 2836 1778 Q 2625 1972 2144 2069 L 1759 2144 Q 1053 2284 737 2584 Q 422 2884 422 3419 Q 422 4038 858 4394 Q 1294 4750 2059 4750 Q 2388 4750 2728 4690 Q 3069 4631 3425 4513 z" transform="scale(0.015625)"/><path id="DejaVuSans-6f" d="M 1959 3097 Q 1497 3097 1228 2736 Q 959 2375 959 1747 Q 959 1119 1226 758 Q 1494 397 1959 397 Q 2419 397 2687 759 Q 2956 1122 2956 1747 Q 2956 2369 2687 2733 Q 2419 3097 1959 3097 z M 1959 3584 Q 2709 3584 3137 3096 Q 3566 2609 3566 1747 Q 3566 888 3137 398 Q 2709 -91 1959 -91 Q 1206 -91 779 398 Q 353 888 353 1747 Q 353 2609 779 3096 Q 1206 3584 1959 3584 z" transform="scale(0.015625)"/><path id="DejaVuSans-75" d="M 544 1381 L 544 3500 L 1119 3500 L 1119 1403 Q 1119 906 1312 657 Q 1506 409 1894 409 Q 2359 409 2629 706 Q 2900 1003 2900 1516 L 2900 3500 L 3475 3500 L 3475 0 L 2900 0 L 2900 538 Q 2691 219 2414 64 Q 2138 -91 1772 -91 Q 1169 -91 856 284 Q 544 659 544 1381 z M 1991 3584 L 1991 3584 z" transform="scale(0.015625)"/><path id="DejaVuSans-74" d="M 1172 4494 L 1172 3500 L 2356 3500 L 2356 3053 L 1172 3053 L 1172 1153 Q 1172 725 1289 603 Q 1406 481 1766 481 L 2356 481 L 2356 0 L 1766 0 Q 1100 0 847 248 Q 594 497 594 1153 L 594 3053 L 172 3053 L 172 3500 L 594 3500 L 594 4494 L 1172 4494 z" transform="scale(0.015625)"/><path id="DejaVuSans-68" d="M 3513 2113 L 3513 0 L 2938 0 L 2938 2094 Q 2938 2591 2744 2837 Q 2550 3084 2163 3084 Q 1697 3084 1428 2787 Q 1159 2491 1159 1978 L 1159 0 L 581 0 L 581 4863 L 1159 4863 L 1159 2956 Q 1366 3272 1645 3428 Q 1925 3584 2291 3584 Q 2894 3584 3203 3211 Q 3513 2838 3513 2113 z" transform="scale(0.015625)"/><path id="DejaVuSans-45" d="M 628 4666 L 3578 4666 L 3578 4134 L 1259 4134 L 1259 2753 L 3481 2753 L 3481 2222 L 1259 2222 L 1259 531 L 3634 531 L 3634 0 L 628 0 L 628 4666 z" transform="scale(0.015625)"/><path id="DejaVuSans-61" d="M 2194 1759 Q 1497 1759 1228 1600 Q 959 1441 959 1056 Q 959 750 1161 570 Q 1363 391 1709 391 Q 2188 391 2477 730 Q 2766 1069 2766 1631 L 2766 1759 L 2194 1759 z M 3341 1997 L 3341 0 L 2766 0 L 2766 531 Q 2569 213 2275 61 Q 1981 -91 1556 -91 Q 1019 -91 701 211 Q 384 513 384 1019 Q 384 1609 779 1909 Q 1175 2209 1959 2209 L 2766 2209 L 2766 2266 Q 2766 2663 2505 2880 Q 2244 3097 1772 3097 Q 1472 3097 1187 3025 Q 903 2953 641 2809 L 641 3341 Q 956 3463 1253 3523 Q 1550 3584 1831 3584 Q 2591 3584 2966 3190 Q 3341 2797 3341 1997 z" transform="scale(0.015625)"/><path id="DejaVuSans-73" d="M 2834 3397 L 2834 2853 Q 2591 2978 2328 3040 Q 2066 3103 1784 3103 Q 1356 3103 1142 2972 Q 928 2841 928 2578 Q 928 2378 1081 2264 Q 1234 2150 1697 2047 L 1894 2003 Q 2506 1872 2764 1633 Q 3022 1394 3022 966 Q 3022 478 2636 193 Q 2250 -91 1575 -91 Q 1294 -91 989 -36 Q 684 19 347 128 L 347 722 Q 666 556 975 473 Q 1284 391 1588 391 Q 1994 391 2212 530 Q 2431 669 2431 922 Q 2431 1156 2273 1281 Q 2116 1406 1581 1522 L 1381 1569 Q 847 1681 609 1914 Q 372 2147 372 2553 Q 372 3047 722 3315 Q 1072 3584 1716 3584 Q 2034 3584 2315 3537 Q 2597 3491 2834 3397 z" transform="scale(0.015625)"/><path id="DejaVuSans-2c" d="M 750 794 L 1409 794 L 1409 256 L 897 -744 L 494 -744 L 750 256 L 750 794 z" transform="scale(0.015625)"/><path id="DejaVuSans-20" transform="scale(0.015625)"/><path id="DejaVuSans-72" d="M 2631 2963 Q 2534 3019 2420 3045 Q 2306 3072 2169 3072 Q 1681 3072 1420 2755 Q 1159 2438 1159 1844 L 1159 0 L 581 0 L 581 3500 L 1159 3500 L 1159 2956 Q 1341 3275 1631 3429 Q 1922 3584 2338 3584 Q 2397 3584 2469 3576 Q 2541 3569 2628 3553 L 2631 2963 z" transform="scale(0.015625)"/><path id="DejaVuSans-57" d="M 213 4666 L 850 4666 L 1831 722 L 2809 4666 L 3519 4666 L 4500 722 L 5478 4666 L 6119 4666 L 4947 0 L 4153 0 L 3169 4050 L 2175 0 L 1381 0 L 213 4666 z" transform="scale(0.015625)"/><path id="DejaVuSans-65" d="M 3597 1894 L 3597 1613 L 953 1613 Q 991 1019 1311 708 Q 1631 397 2203 397 Q 2534 397 2845 478 Q 3156 559 3463 722 L 3463 178 Q 3153 47 2828 -22 Q 2503 -91 2169 -91 Q 1331 -91 842 396 Q 353 884 353 1716 Q 353 2575 817 3079 Q 1281 3584 2069 3584 Q 2775 3584 3186 3129 Q 3597 2675 3597 1894 z M 3022 2063 Q 3016 2534 2758 2815 Q 2500 3097 2075 3097 Q 1594 3097 1305 2825 Q 1016 2553 972 2059 L 3022 2063 z" transform="scale(0.015625)"/><path id="DejaVuSans-29" d="M 513 4856 L 1013 4856 Q 1481 4119 1714 3412 Q 1947 2706 1947 2009 Q 1947 1309 1714 600 Q 1481 -109 1013 -844 L 513 -844 Q 928 -128 1133 580 Q 1338 1288 1338 2009 Q 1338 2731 1133 3434 Q 928 4138 513 4856 z" transform="scale(0.015625)"/></defs><use xlink:href="#DejaVuSans-28"/><use x="39.014" xlink:href="#DejaVuSans-4e"/><use x="113.818" xlink:href="#DejaVuSans-31"/><use x="177.441" xlink:href="#DejaVuSans-30"/><use x="241.064" xlink:href="#DejaVuSans-37"/><use x="304.688" xlink:href="#DejaVuSans-5f"/><use x="354.688" xlink:href="#DejaVuSans-53"/><use x="418.164" xlink:href="#DejaVuSans-6f"/><use x="479.346" xlink:href="#DejaVuSans-75"/><use x="542.725" xlink:href="#DejaVuSans-74"/><use x="581.934" xlink:href="#DejaVuSans-68"/><use x="645.313" xlink:href="#DejaVuSans-45"/><use x="708.496" xlink:href="#DejaVuSans-61"/><use x="769.775" xlink:href="#DejaVuSans-73"/><use x="821.875" xlink:href="#DejaVuSans-74"/><use x="861.084" xlink:href="#DejaVuSans-2c"/><use x="892.871" xlink:href="#DejaVuSans-20"/><use x="924.658" xlink:href="#DejaVuSans-4e"/><use x="999.463" xlink:href="#DejaVuSans-31"/><use x="1063.086" xlink:href="#DejaVuSans-30"/><use x="1126.709" xlink:href="#DejaVuSans-37"/><use x="1190.332" xlink:href="#DejaVuSans-5f"/><use x="1240.332" xlink:href="#DejaVuSans-4e"/><use x="1315.137" xlink:href="#DejaVuSans-6f"/><use x="1376.318" xlink:href="#DejaVuSans-72"/><use x="1417.432" xlink:href="#DejaVuSans-74"/><use x="1456.641" xlink:href="#DejaVuSans-68"/><use x="1520.02" xlink:href="#DejaVuSans-57"/><use x="1613.021" xlink:href="#DejaVuSans-65"/><use x="1674.545" xlink:href="#DejaVuSans-73"/><use x="1726.645" xlink:href="#DejaVuSans-74"/><use x="1765.854" xlink:href="#DejaVuSans-29"/></g></g></g><g id="xtick_2"><g id="line2d_2"><g><use x="177.404" y="333.36" xlink:href="#m7ad33f5c60" style="stroke:#000;stroke-width:.8"/></g></g><g id="text_2"><g transform="translate(93.498819 409.230556)rotate(-20)scale(0.1 -0.1)"><use xlink:href="#DejaVuSans-28"/><use x="39.014" xlink:href="#DejaVuSans-4e"/><use x="113.818" xlink:href="#DejaVuSans-31"/><use x="177.441" xlink:href="#DejaVuSans-30"/><use x="241.064" xlink:href="#DejaVuSans-37"/><use x="304.688" xlink:href="#DejaVuSans-5f"/><use x="354.688" xlink:href="#DejaVuSans-4e"/><use x="429.492" xlink:href="#DejaVuSans-6f"/><use x="490.674" xlink:href="#DejaVuSans-72"/><use x="531.787" xlink:href="#DejaVuSans-74"/><use x="570.996" xlink:href="#DejaVuSans-68"/><use x="634.375" xlink:href="#DejaVuSans-57"/><use x="727.377" xlink:href="#DejaVuSans-65"/><use x="788.9" xlink:href="#DejaVuSans-73"/><use x="841" xlink:href="#DejaVuSans-74"/><use x="880.209" xlink:href="#DejaVuSans-2c"/><use x="911.996" xlink:href="#DejaVuSans-20"/><use x="943.783" xlink:href="#DejaVuSans-4e"/><use x="1018.588" xlink:href="#DejaVuSans-31"/><use x="1082.211" xlink:href="#DejaVuSans-30"/><use x="1145.834" xlink:href="#DejaVuSans-37"/><use x="1209.457" xlink:href="#DejaVuSans-5f"/><use x="1259.457" xlink:href="#DejaVuSans-53"/><use x="1322.934" xlink:href="#DejaVuSans-6f"/><use x="1384.115" xlink:href="#DejaVuSans-75"/><use x="1447.494" xlink:href="#DejaVuSans-74"/><use x="1486.703" xlink:href="#DejaVuSans-68"/><use x="1550.082" xlink:href="#DejaVuSans-45"/><use x="1613.266" xlink:href="#DejaVuSans-61"/><use x="1674.545" xlink:href="#DejaVuSans-73"/><use x="1726.645" xlink:href="#DejaVuSans-74"/><use x="1765.854" xlink:href="#DejaVuSans-29"/></g></g></g><g id="xtick_3"><g id="line2d_3"><g><use x="261.104" y="333.36" xlink:href="#m7ad33f5c60" style="stroke:#000;stroke-width:.8"/></g></g><g id="text_3"><g transform="translate(175.786343 410.258754)rotate(-20)scale(0.1 -0.1)"><defs><path id="DejaVuSans-38" d="M 2034 2216 Q 1584 2216 1326 1975 Q 1069 1734 1069 1313 Q 1069 891 1326 650 Q 1584 409 2034 409 Q 2484 409 2743 651 Q 3003 894 3003 1313 Q 3003 1734 2745 1975 Q 2488 2216 2034 2216 z M 1403 2484 Q 997 2584 770 2862 Q 544 3141 544 3541 Q 544 4100 942 4425 Q 1341 4750 2034 4750 Q 2731 4750 3128 4425 Q 3525 4100 3525 3541 Q 3525 3141 3298 2862 Q 3072 2584 2669 2484 Q 3125 2378 3379 2068 Q 3634 1759 3634 1313 Q 3634 634 3220 271 Q 2806 -91 2034 -91 Q 1263 -91 848 271 Q 434 634 434 1313 Q 434 1759 690 2068 Q 947 2378 1403 2484 z M 1172 3481 Q 1172 3119 1398 2916 Q 1625 2713 2034 2713 Q 2441 2713 2670 2916 Q 2900 3119 2900 3481 Q 2900 3844 2670 4047 Q 2441 4250 2034 4250 Q 1625 4250 1398 4047 Q 1172 3844 1172 3481 z" transform="scale(0.015625)"/></defs><use xlink:href="#DejaVuSans-28"/><use x="39.014" xlink:href="#DejaVuSans-4e"/><use x="113.818" xlink:href="#DejaVuSans-31"/><use x="177.441" xlink:href="#DejaVuSans-30"/><use x="241.064" xlink:href="#DejaVuSans-37"/><use x="304.688" xlink:href="#DejaVuSans-5f"/><use x="354.688" xlink:href="#DejaVuSans-4e"/><use x="429.492" xlink:href="#DejaVuSans-6f"/><use x="490.674" xlink:href="#DejaVuSans-72"/><use x="531.787" xlink:href="#DejaVuSans-74"/><use x="570.996" xlink:href="#DejaVuSans-68"/><use x="634.375" xlink:href="#DejaVuSans-57"/><use x="727.377" xlink:href="#DejaVuSans-65"/><use x="788.9" xlink:href="#DejaVuSans-73"/><use x="841" xlink:href="#DejaVuSans-74"/><use x="880.209" xlink:href="#DejaVuSans-2c"/><use x="911.996" xlink:href="#DejaVuSans-20"/><use x="943.783" xlink:href="#DejaVuSans-4e"/><use x="1018.588" xlink:href="#DejaVuSans-31"/><use x="1082.211" xlink:href="#DejaVuSans-30"/><use x="1145.834" xlink:href="#DejaVuSans-38"/><use x="1209.457" xlink:href="#DejaVuSans-5f"/><use x="1259.457" xlink:href="#DejaVuSans-53"/><use x="1322.934" xlink:href="#DejaVuSans-6f"/><use x="1384.115" xlink:href="#DejaVuSans-75"/><use x="1447.494" xlink:href="#DejaVuSans-74"/><use x="1486.703" xlink:href="#DejaVuSans-68"/><use x="1550.082" xlink:href="#DejaVuSans-57"/><use x="1643.084" xlink:href="#DejaVuSans-65"/><use x="1704.607" xlink:href="#DejaVuSans-73"/><use x="1756.707" xlink:href="#DejaVuSans-74"/><use x="1795.916" xlink:href="#DejaVuSans-29"/></g></g></g><g id="xtick_4"><g id="line2d_4"><g><use x="344.804" y="333.36" xlink:href="#m7ad33f5c60" style="stroke:#000;stroke-width:.8"/></g></g><g id="text_4"><g transform="translate(259.486343 410.258754)rotate(-20)scale(0.1 -0.1)"><use xlink:href="#DejaVuSans-28"/><use x="39.014" xlink:href="#DejaVuSans-4e"/><use x="113.818" xlink:href="#DejaVuSans-31"/><use x="177.441" xlink:href="#DejaVuSans-30"/><use x="241.064" xlink:href="#DejaVuSans-38"/><use x="304.688" xlink:href="#DejaVuSans-5f"/><use x="354.688" xlink:href="#DejaVuSans-53"/><use x="418.164" xlink:href="#DejaVuSans-6f"/><use x="479.346" xlink:href="#DejaVuSans-75"/><use x="542.725" xlink:href="#DejaVuSans-74"/><use x="581.934" xlink:href="#DejaVuSans-68"/><use x="645.313" xlink:href="#DejaVuSans-57"/><use x="738.314" xlink:href="#DejaVuSans-65"/><use x="799.838" xlink:href="#DejaVuSans-73"/><use x="851.938" xlink:href="#DejaVuSans-74"/><use x="891.146" xlink:href="#DejaVuSans-2c"/><use x="922.934" xlink:href="#DejaVuSans-20"/><use x="954.721" xlink:href="#DejaVuSans-4e"/><use x="1029.525" xlink:href="#DejaVuSans-31"/><use x="1093.148" xlink:href="#DejaVuSans-30"/><use x="1156.771" xlink:href="#DejaVuSans-37"/><use x="1220.395" xlink:href="#DejaVuSans-5f"/><use x="1270.395" xlink:href="#DejaVuSans-4e"/><use x="1345.199" xlink:href="#DejaVuSans-6f"/><use x="1406.381" xlink:href="#DejaVuSans-72"/><use x="1447.494" xlink:href="#DejaVuSans-74"/><use x="1486.703" xlink:href="#DejaVuSans-68"/><use x="1550.082" xlink:href="#DejaVuSans-57"/><use x="1643.084" xlink:href="#DejaVuSans-65"/><use x="1704.607" xlink:href="#DejaVuSans-73"/><use x="1756.707" xlink:href="#DejaVuSans-74"/><use x="1795.916" xlink:href="#DejaVuSans-29"/></g></g></g><g id="xtick_5"><g id="line2d_5"><g><use x="428.504" y="333.36" xlink:href="#m7ad33f5c60" style="stroke:#000;stroke-width:.8"/></g></g><g id="text_5"><g transform="translate(351.476194 404.224236)rotate(-20)scale(0.1 -0.1)"><use xlink:href="#DejaVuSans-28"/><use x="39.014" xlink:href="#DejaVuSans-4e"/><use x="113.818" xlink:href="#DejaVuSans-31"/><use x="177.441" xlink:href="#DejaVuSans-5f"/><use x="227.441" xlink:href="#DejaVuSans-53"/><use x="290.918" xlink:href="#DejaVuSans-6f"/><use x="352.1" xlink:href="#DejaVuSans-75"/><use x="415.479" xlink:href="#DejaVuSans-74"/><use x="454.688" xlink:href="#DejaVuSans-68"/><use x="518.066" xlink:href="#DejaVuSans-45"/><use x="581.25" xlink:href="#DejaVuSans-61"/><use x="642.529" xlink:href="#DejaVuSans-73"/><use x="694.629" xlink:href="#DejaVuSans-74"/><use x="733.838" xlink:href="#DejaVuSans-2c"/><use x="765.625" xlink:href="#DejaVuSans-20"/><use x="797.412" xlink:href="#DejaVuSans-4e"/><use x="872.217" xlink:href="#DejaVuSans-31"/><use x="935.84" xlink:href="#DejaVuSans-31"/><use x="999.463" xlink:href="#DejaVuSans-30"/><use x="1063.086" xlink:href="#DejaVuSans-5f"/><use x="1113.086" xlink:href="#DejaVuSans-53"/><use x="1176.563" xlink:href="#DejaVuSans-6f"/><use x="1237.744" xlink:href="#DejaVuSans-75"/><use x="1301.123" xlink:href="#DejaVuSans-74"/><use x="1340.332" xlink:href="#DejaVuSans-68"/><use x="1403.711" xlink:href="#DejaVuSans-45"/><use x="1466.895" xlink:href="#DejaVuSans-61"/><use x="1528.174" xlink:href="#DejaVuSans-73"/><use x="1580.273" xlink:href="#DejaVuSans-74"/><use x="1619.482" xlink:href="#DejaVuSans-29"/></g></g></g><g id="xtick_6"><g id="line2d_6"><g><use x="512.204" y="333.36" xlink:href="#m7ad33f5c60" style="stroke:#000;stroke-width:.8"/></g></g><g id="text_6"><g transform="translate(435.176194 404.224236)rotate(-20)scale(0.1 -0.1)"><use xlink:href="#DejaVuSans-28"/><use x="39.014" xlink:href="#DejaVuSans-4e"/><use x="113.818" xlink:href="#DejaVuSans-31"/><use x="177.441" xlink:href="#DejaVuSans-31"/><use x="241.064" xlink:href="#DejaVuSans-30"/><use x="304.688" xlink:href="#DejaVuSans-5f"/><use x="354.688" xlink:href="#DejaVuSans-53"/><use x="418.164" xlink:href="#DejaVuSans-6f"/><use x="479.346" xlink:href="#DejaVuSans-75"/><use x="542.725" xlink:href="#DejaVuSans-74"/><use x="581.934" xlink:href="#DejaVuSans-68"/><use x="645.313" xlink:href="#DejaVuSans-45"/><use x="708.496" xlink:href="#DejaVuSans-61"/><use x="769.775" xlink:href="#DejaVuSans-73"/><use x="821.875" xlink:href="#DejaVuSans-74"/><use x="861.084" xlink:href="#DejaVuSans-2c"/><use x="892.871" xlink:href="#DejaVuSans-20"/><use x="924.658" xlink:href="#DejaVuSans-4e"/><use x="999.463" xlink:href="#DejaVuSans-31"/><use x="1063.086" xlink:href="#DejaVuSans-5f"/><use x="1113.086" xlink:href="#DejaVuSans-53"/><use x="1176.563" xlink:href="#DejaVuSans-6f"/><use x="1237.744" xlink:href="#DejaVuSans-75"/><use x="1301.123" xlink:href="#DejaVuSans-74"/><use x="1340.332" xlink:href="#DejaVuSans-68"/><use x="1403.711" xlink:href="#DejaVuSans-45"/><use x="1466.895" xlink:href="#DejaVuSans-61"/><use x="1528.174" xlink:href="#DejaVuSans-73"/><use x="1580.273" xlink:href="#DejaVuSans-74"/><use x="1619.482" xlink:href="#DejaVuSans-29"/></g></g></g><g id="xtick_7"><g id="line2d_7"><g><use x="595.904" y="333.36" xlink:href="#m7ad33f5c60" style="stroke:#000;stroke-width:.8"/></g></g><g id="text_7"><g transform="translate(519.390088 403.850152)rotate(-20)scale(0.1 -0.1)"><defs><path id="DejaVuSans-39" d="M 703 97 L 703 672 Q 941 559 1184 500 Q 1428 441 1663 441 Q 2288 441 2617 861 Q 2947 1281 2994 2138 Q 2813 1869 2534 1725 Q 2256 1581 1919 1581 Q 1219 1581 811 2004 Q 403 2428 403 3163 Q 403 3881 828 4315 Q 1253 4750 1959 4750 Q 2769 4750 3195 4129 Q 3622 3509 3622 2328 Q 3622 1225 3098 567 Q 2575 -91 1691 -91 Q 1453 -91 1209 -44 Q 966 3 703 97 z M 1959 2075 Q 2384 2075 2632 2365 Q 2881 2656 2881 3163 Q 2881 3666 2632 3958 Q 2384 4250 1959 4250 Q 1534 4250 1286 3958 Q 1038 3666 1038 3163 Q 1038 2656 1286 2365 Q 1534 2075 1959 2075 z" transform="scale(0.015625)"/></defs><use xlink:href="#DejaVuSans-28"/><use x="39.014" xlink:href="#DejaVuSans-4e"/><use x="113.818" xlink:href="#DejaVuSans-31"/><use x="177.441" xlink:href="#DejaVuSans-5f"/><use x="227.441" xlink:href="#DejaVuSans-53"/><use x="290.918" xlink:href="#DejaVuSans-6f"/><use x="352.1" xlink:href="#DejaVuSans-75"/><use x="415.479" xlink:href="#DejaVuSans-74"/><use x="454.688" xlink:href="#DejaVuSans-68"/><use x="518.066" xlink:href="#DejaVuSans-45"/><use x="581.25" xlink:href="#DejaVuSans-61"/><use x="642.529" xlink:href="#DejaVuSans-73"/><use x="694.629" xlink:href="#DejaVuSans-74"/><use x="733.838" xlink:href="#DejaVuSans-2c"/><use x="765.625" xlink:href="#DejaVuSans-20"/><use x="797.412" xlink:href="#DejaVuSans-4e"/><use x="872.217" xlink:href="#DejaVuSans-31"/><use x="935.84" xlink:href="#DejaVuSans-30"/><use x="999.463" xlink:href="#DejaVuSans-39"/><use x="1063.086" xlink:href="#DejaVuSans-5f"/><use x="1113.086" xlink:href="#DejaVuSans-4e"/><use x="1187.891" xlink:href="#DejaVuSans-6f"/><use x="1249.072" xlink:href="#DejaVuSans-72"/><use x="1290.186" xlink:href="#DejaVuSans-74"/><use x="1329.395" xlink:href="#DejaVuSans-68"/><use x="1392.773" xlink:href="#DejaVuSans-45"/><use x="1455.957" xlink:href="#DejaVuSans-61"/><use x="1517.236" xlink:href="#DejaVuSans-73"/><use x="1569.336" xlink:href="#DejaVuSans-74"/><use x="1608.545" xlink:href="#DejaVuSans-29"/></g></g></g><g id="xtick_8"><g id="line2d_8"><g><use x="679.604" y="333.36" xlink:href="#m7ad33f5c60" style="stroke:#000;stroke-width:.8"/></g></g><g id="text_8"><g transform="translate(601.677613 404.87835)rotate(-20)scale(0.1 -0.1)"><use xlink:href="#DejaVuSans-28"/><use x="39.014" xlink:href="#DejaVuSans-4e"/><use x="113.818" xlink:href="#DejaVuSans-31"/><use x="177.441" xlink:href="#DejaVuSans-31"/><use x="241.064" xlink:href="#DejaVuSans-30"/><use x="304.688" xlink:href="#DejaVuSans-5f"/><use x="354.688" xlink:href="#DejaVuSans-4e"/><use x="429.492" xlink:href="#DejaVuSans-6f"/><use x="490.674" xlink:href="#DejaVuSans-72"/><use x="531.787" xlink:href="#DejaVuSans-74"/><use x="570.996" xlink:href="#DejaVuSans-68"/><use x="634.375" xlink:href="#DejaVuSans-57"/><use x="727.377" xlink:href="#DejaVuSans-65"/><use x="788.9" xlink:href="#DejaVuSans-73"/><use x="841" xlink:href="#DejaVuSans-74"/><use x="880.209" xlink:href="#DejaVuSans-2c"/><use x="911.996" xlink:href="#DejaVuSans-20"/><use x="943.783" xlink:href="#DejaVuSans-4e"/><use x="1018.588" xlink:href="#DejaVuSans-31"/><use x="1082.211" xlink:href="#DejaVuSans-5f"/><use x="1132.211" xlink:href="#DejaVuSans-53"/><use x="1195.688" xlink:href="#DejaVuSans-6f"/><use x="1256.869" xlink:href="#DejaVuSans-75"/><use x="1320.248" xlink:href="#DejaVuSans-74"/><use x="1359.457" xlink:href="#DejaVuSans-68"/><use x="1422.836" xlink:href="#DejaVuSans-45"/><use x="1486.02" xlink:href="#DejaVuSans-61"/><use x="1547.299" xlink:href="#DejaVuSans-73"/><use x="1599.398" xlink:href="#DejaVuSans-74"/><use x="1638.607" xlink:href="#DejaVuSans-29"/></g></g></g><g id="xtick_9"><g id="line2d_9"><g><use x="763.304" y="333.36" xlink:href="#m7ad33f5c60" style="stroke:#000;stroke-width:.8"/></g></g><g id="text_9"><g transform="translate(684.863719 405.252434)rotate(-20)scale(0.1 -0.1)"><use xlink:href="#DejaVuSans-28"/><use x="39.014" xlink:href="#DejaVuSans-4e"/><use x="113.818" xlink:href="#DejaVuSans-31"/><use x="177.441" xlink:href="#DejaVuSans-5f"/><use x="227.441" xlink:href="#DejaVuSans-53"/><use x="290.918" xlink:href="#DejaVuSans-6f"/><use x="352.1" xlink:href="#DejaVuSans-75"/><use x="415.479" xlink:href="#DejaVuSans-74"/><use x="454.688" xlink:href="#DejaVuSans-68"/><use x="518.066" xlink:href="#DejaVuSans-45"/><use x="581.25" xlink:href="#DejaVuSans-61"/><use x="642.529" xlink:href="#DejaVuSans-73"/><use x="694.629" xlink:href="#DejaVuSans-74"/><use x="733.838" xlink:href="#DejaVuSans-2c"/><use x="765.625" xlink:href="#DejaVuSans-20"/><use x="797.412" xlink:href="#DejaVuSans-4e"/><use x="872.217" xlink:href="#DejaVuSans-31"/><use x="935.84" xlink:href="#DejaVuSans-30"/><use x="999.463" xlink:href="#DejaVuSans-39"/><use x="1063.086" xlink:href="#DejaVuSans-5f"/><use x="1113.086" xlink:href="#DejaVuSans-53"/><use x="1176.563" xlink:href="#DejaVuSans-6f"/><use x="1237.744" xlink:href="#DejaVuSans-75"/><use x="1301.123" xlink:href="#DejaVuSans-74"/><use x="1340.332" xlink:href="#DejaVuSans-68"/><use x="1403.711" xlink:href="#DejaVuSans-57"/><use x="1496.713" xlink:href="#DejaVuSans-65"/><use x="1558.236" xlink:href="#DejaVuSans-73"/><use x="1610.336" xlink:href="#DejaVuSans-74"/><use x="1649.545" xlink:href="#DejaVuSans-29"/></g></g></g><g id="xtick_10"><g id="line2d_10"><g><use x="847.004" y="333.36" xlink:href="#m7ad33f5c60" style="stroke:#000;stroke-width:.8"/></g></g><g id="text_10"><g transform="translate(769.077613 404.87835)rotate(-20)scale(0.1 -0.1)"><use xlink:href="#DejaVuSans-28"/><use x="39.014" xlink:href="#DejaVuSans-4e"/><use x="113.818" xlink:href="#DejaVuSans-31"/><use x="177.441" xlink:href="#DejaVuSans-5f"/><use x="227.441" xlink:href="#DejaVuSans-53"/><use x="290.918" xlink:href="#DejaVuSans-6f"/><use x="352.1" xlink:href="#DejaVuSans-75"/><use x="415.479" xlink:href="#DejaVuSans-74"/><use x="454.688" xlink:href="#DejaVuSans-68"/><use x="518.066" xlink:href="#DejaVuSans-45"/><use x="581.25" xlink:href="#DejaVuSans-61"/><use x="642.529" xlink:href="#DejaVuSans-73"/><use x="694.629" xlink:href="#DejaVuSans-74"/><use x="733.838" xlink:href="#DejaVuSans-2c"/><use x="765.625" xlink:href="#DejaVuSans-20"/><use x="797.412" xlink:href="#DejaVuSans-4e"/><use x="872.217" xlink:href="#DejaVuSans-31"/><use x="935.84" xlink:href="#DejaVuSans-31"/><use x="999.463" xlink:href="#DejaVuSans-30"/><use x="1063.086" xlink:href="#DejaVuSans-5f"/><use x="1113.086" xlink:href="#DejaVuSans-4e"/><use x="1187.891" xlink:href="#DejaVuSans-6f"/><use x="1249.072" xlink:href="#DejaVuSans-72"/><use x="1290.186" xlink:href="#DejaVuSans-74"/><use x="1329.395" xlink:href="#DejaVuSans-68"/><use x="1392.773" xlink:href="#DejaVuSans-57"/><use x="1485.775" xlink:href="#DejaVuSans-65"/><use x="1547.299" xlink:href="#DejaVuSans-73"/><use x="1599.398" xlink:href="#DejaVuSans-74"/><use x="1638.607" xlink:href="#DejaVuSans-29"/></g></g></g><g id="text_11"><g transform="translate(455.839942 424.072811)scale(0.1 -0.1)"><defs><path id="DejaVuSans-52" d="M 2841 2188 Q 3044 2119 3236 1894 Q 3428 1669 3622 1275 L 4263 0 L 3584 0 L 2988 1197 Q 2756 1666 2539 1819 Q 2322 1972 1947 1972 L 1259 1972 L 1259 0 L 628 0 L 628 4666 L 2053 4666 Q 2853 4666 3247 4331 Q 3641 3997 3641 3322 Q 3641 2881 3436 2590 Q 3231 2300 2841 2188 z M 1259 4147 L 1259 2491 L 2053 2491 Q 2509 2491 2742 2702 Q 2975 2913 2975 3322 Q 2975 3731 2742 3939 Q 2509 4147 2053 4147 L 1259 4147 z" transform="scale(0.015625)"/></defs><use xlink:href="#DejaVuSans-52"/><use x="64.982" xlink:href="#DejaVuSans-6f"/><use x="126.164" xlink:href="#DejaVuSans-75"/><use x="189.543" xlink:href="#DejaVuSans-74"/><use x="228.752" xlink:href="#DejaVuSans-65"/></g><g transform="translate(416.70713 435.270623)scale(0.1 -0.1)"><defs><path id="DejaVuSans-70" d="M 1159 525 L 1159 -1331 L 581 -1331 L 581 3500 L 1159 3500 L 1159 2969 Q 1341 3281 1617 3432 Q 1894 3584 2278 3584 Q 2916 3584 3314 3078 Q 3713 2572 3713 1747 Q 3713 922 3314 415 Q 2916 -91 2278 -91 Q 1894 -91 1617 61 Q 1341 213 1159 525 z M 3116 1747 Q 3116 2381 2855 2742 Q 2594 3103 2138 3103 Q 1681 3103 1420 2742 Q 1159 2381 1159 1747 Q 1159 1113 1420 752 Q 1681 391 2138 391 Q 2594 391 2855 752 Q 3116 1113 3116 1747 z" transform="scale(0.015625)"/><path id="DejaVuSans-69" d="M 603 3500 L 1178 3500 L 1178 0 L 603 0 L 603 3500 z M 603 4863 L 1178 4863 L 1178 4134 L 603 4134 L 603 4863 z" transform="scale(0.015625)"/><path id="DejaVuSans-6e" d="M 3513 2113 L 3513 0 L 2938 0 L 2938 2094 Q 2938 2591 2744 2837 Q 2550 3084 2163 3084 Q 1697 3084 1428 2787 Q 1159 2491 1159 1978 L 1159 0 L 581 0 L 581 3500 L 1159 3500 L 1159 2956 Q 1366 3272 1645 3428 Q 1925 3584 2291 3584 Q 2894 3584 3203 3211 Q 3513 2838 3513 2113 z" transform="scale(0.015625)"/><path id="DejaVuSans-64" d="M 2906 2969 L 2906 4863 L 3481 4863 L 3481 0 L 2906 0 L 2906 525 Q 2725 213 2448 61 Q 2172 -91 1784 -91 Q 1150 -91 751 415 Q 353 922 353 1747 Q 353 2572 751 3078 Q 1150 3584 1784 3584 Q 2172 3584 2448 3432 Q 2725 3281 2906 2969 z M 947 1747 Q 947 1113 1208 752 Q 1469 391 1925 391 Q 2381 391 2643 752 Q 2906 1113 2906 1747 Q 2906 2381 2643 2742 Q 2381 3103 1925 3103 Q 1469 3103 1208 2742 Q 947 2381 947 1747 z" transform="scale(0.015625)"/></defs><use xlink:href="#DejaVuSans-28"/><use x="39.014" xlink:href="#DejaVuSans-73"/><use x="91.113" xlink:href="#DejaVuSans-74"/><use x="130.322" xlink:href="#DejaVuSans-61"/><use x="191.602" xlink:href="#DejaVuSans-72"/><use x="232.715" xlink:href="#DejaVuSans-74"/><use x="271.924" xlink:href="#DejaVuSans-70"/><use x="335.4" xlink:href="#DejaVuSans-6f"/><use x="396.582" xlink:href="#DejaVuSans-69"/><use x="424.365" xlink:href="#DejaVuSans-6e"/><use x="487.744" xlink:href="#DejaVuSans-74"/><use x="526.953" xlink:href="#DejaVuSans-2c"/><use x="558.74" xlink:href="#DejaVuSans-20"/><use x="590.527" xlink:href="#DejaVuSans-65"/><use x="652.051" xlink:href="#DejaVuSans-6e"/><use x="715.43" xlink:href="#DejaVuSans-64"/><use x="778.906" xlink:href="#DejaVuSans-70"/><use x="842.383" xlink:href="#DejaVuSans-6f"/><use x="903.564" xlink:href="#DejaVuSans-69"/><use x="931.348" xlink:href="#DejaVuSans-6e"/><use x="994.727" xlink:href="#DejaVuSans-74"/><use x="1033.936" xlink:href="#DejaVuSans-29"/></g></g></g><g id="matplotlib.axis_2"><g id="ytick_1"><g id="line2d_11"><path d="M 51.854005 333.36 L 888.854005 333.36" clip-path="url(#p5b275e39e9)" style="fill:none;stroke:#b0b0b0;stroke-width:.8;stroke-linecap:square"/></g><g id="line2d_12"><defs><path id="m15dafde253" d="M 0 0 L -3.5 0" style="stroke:#000;stroke-width:.8"/></defs><g><use x="51.854" y="333.36" xlink:href="#m15dafde253" style="stroke:#000;stroke-width:.8"/></g></g><g id="text_12"><g transform="translate(38.491505 337.159219)scale(0.1 -0.1)"><use xlink:href="#DejaVuSans-30"/></g></g></g><g id="ytick_2"><g id="line2d_13"><path d="M 51.854005 266.331932 L 888.854005 266.331932" clip-path="url(#p5b275e39e9)" style="fill:none;stroke:#b0b0b0;stroke-width:.8;stroke-linecap:square"/></g><g id="line2d_14"><g><use x="51.854" y="266.332" xlink:href="#m15dafde253" style="stroke:#000;stroke-width:.8"/></g></g><g id="text_13"><g transform="translate(38.491505 270.131151)scale(0.1 -0.1)"><use xlink:href="#DejaVuSans-31"/></g></g></g><g id="ytick_3"><g id="line2d_15"><path d="M 51.854005 199.303865 L 888.854005 199.303865" clip-path="url(#p5b275e39e9)" style="fill:none;stroke:#b0b0b0;stroke-width:.8;stroke-linecap:square"/></g><g id="line2d_16"><g><use x="51.854" y="199.304" xlink:href="#m15dafde253" style="stroke:#000;stroke-width:.8"/></g></g><g id="text_14"><g transform="translate(38.491505 203.103083)scale(0.1 -0.1)"><defs><path id="DejaVuSans-32" d="M 1228 531 L 3431 531 L 3431 0 L 469 0 L 469 531 Q 828 903 1448 1529 Q 2069 2156 2228 2338 Q 2531 2678 2651 2914 Q 2772 3150 2772 3378 Q 2772 3750 2511 3984 Q 2250 4219 1831 4219 Q 1534 4219 1204 4116 Q 875 4013 500 3803 L 500 4441 Q 881 4594 1212 4672 Q 1544 4750 1819 4750 Q 2544 4750 2975 4387 Q 3406 4025 3406 3419 Q 3406 3131 3298 2873 Q 3191 2616 2906 2266 Q 2828 2175 2409 1742 Q 1991 1309 1228 531 z" transform="scale(0.015625)"/></defs><use xlink:href="#DejaVuSans-32"/></g></g></g><g id="ytick_4"><g id="line2d_17"><path d="M 51.854005 132.275797 L 888.854005 132.275797" clip-path="url(#p5b275e39e9)" style="fill:none;stroke:#b0b0b0;stroke-width:.8;stroke-linecap:square"/></g><g id="line2d_18"><g><use x="51.854" y="132.276" xlink:href="#m15dafde253" style="stroke:#000;stroke-width:.8"/></g></g><g id="text_15"><g transform="translate(38.491505 136.075016)scale(0.1 -0.1)"><defs><path id="DejaVuSans-33" d="M 2597 2516 Q 3050 2419 3304 2112 Q 3559 1806 3559 1356 Q 3559 666 3084 287 Q 2609 -91 1734 -91 Q 1441 -91 1130 -33 Q 819 25 488 141 L 488 750 Q 750 597 1062 519 Q 1375 441 1716 441 Q 2309 441 2620 675 Q 2931 909 2931 1356 Q 2931 1769 2642 2001 Q 2353 2234 1838 2234 L 1294 2234 L 1294 2753 L 1863 2753 Q 2328 2753 2575 2939 Q 2822 3125 2822 3475 Q 2822 3834 2567 4026 Q 2313 4219 1838 4219 Q 1578 4219 1281 4162 Q 984 4106 628 3988 L 628 4550 Q 988 4650 1302 4700 Q 1616 4750 1894 4750 Q 2613 4750 3031 4423 Q 3450 4097 3450 3541 Q 3450 3153 3228 2886 Q 3006 2619 2597 2516 z" transform="scale(0.015625)"/></defs><use xlink:href="#DejaVuSans-33"/></g></g></g><g id="ytick_5"><g id="line2d_19"><path d="M 51.854005 65.247729 L 888.854005 65.247729" clip-path="url(#p5b275e39e9)" style="fill:none;stroke:#b0b0b0;stroke-width:.8;stroke-linecap:square"/></g><g id="line2d_20"><g><use x="51.854" y="65.248" xlink:href="#m15dafde253" style="stroke:#000;stroke-width:.8"/></g></g><g id="text_16"><g transform="translate(38.491505 69.046948)scale(0.1 -0.1)"><defs><path id="DejaVuSans-34" d="M 2419 4116 L 825 1625 L 2419 1625 L 2419 4116 z M 2253 4666 L 3047 4666 L 3047 1625 L 3713 1625 L 3713 1100 L 3047 1100 L 3047 0 L 2419 0 L 2419 1100 L 313 1100 L 313 1709 L 2253 4666 z" transform="scale(0.015625)"/></defs><use xlink:href="#DejaVuSans-34"/></g></g></g><g id="text_17"><g transform="translate(21.214005 200.856562)rotate(-90)scale(0.1 -0.1)"><defs><path id="DejaVuSans-44" d="M 1259 4147 L 1259 519 L 2022 519 Q 2988 519 3436 956 Q 3884 1394 3884 2338 Q 3884 3275 3436 3711 Q 2988 4147 2022 4147 L 1259 4147 z M 628 4666 L 1925 4666 Q 3281 4666 3915 4102 Q 4550 3538 4550 2338 Q 4550 1131 3912 565 Q 3275 0 1925 0 L 628 0 L 628 4666 z" transform="scale(0.015625)"/><path id="DejaVuSans-6c" d="M 603 4863 L 1178 4863 L 1178 0 L 603 0 L 603 4863 z" transform="scale(0.015625)"/><path id="DejaVuSans-79" d="M 2059 -325 Q 1816 -950 1584 -1140 Q 1353 -1331 966 -1331 L 506 -1331 L 506 -850 L 844 -850 Q 1081 -850 1212 -737 Q 1344 -625 1503 -206 L 1606 56 L 191 3500 L 800 3500 L 1894 763 L 2988 3500 L 3597 3500 L 2059 -325 z" transform="scale(0.015625)"/><path id="DejaVuSans-66" d="M 2375 4863 L 2375 4384 L 1825 4384 Q 1516 4384 1395 4259 Q 1275 4134 1275 3809 L 1275 3500 L 2222 3500 L 2222 3053 L 1275 3053 L 1275 0 L 697 0 L 697 3053 L 147 3053 L 147 3500 L 697 3500 L 697 3744 Q 697 4328 969 4595 Q 1241 4863 1831 4863 L 2375 4863 z" transform="scale(0.015625)"/><path id="DejaVuSans-63" d="M 3122 3366 L 3122 2828 Q 2878 2963 2633 3030 Q 2388 3097 2138 3097 Q 1578 3097 1268 2742 Q 959 2388 959 1747 Q 959 1106 1268 751 Q 1578 397 2138 397 Q 2388 397 2633 464 Q 2878 531 3122 666 L 3122 134 Q 2881 22 2623 -34 Q 2366 -91 2075 -91 Q 1284 -91 818 406 Q 353 903 353 1747 Q 353 2603 823 3093 Q 1294 3584 2113 3584 Q 2378 3584 2631 3529 Q 2884 3475 3122 3366 z" transform="scale(0.015625)"/></defs><use xlink:href="#DejaVuSans-44"/><use x="77.002" xlink:href="#DejaVuSans-65"/><use x="138.525" xlink:href="#DejaVuSans-6c"/><use x="166.309" xlink:href="#DejaVuSans-61"/><use x="227.588" xlink:href="#DejaVuSans-79"/><use x="286.768" xlink:href="#DejaVuSans-20"/><use x="318.555" xlink:href="#DejaVuSans-66"/><use x="353.76" xlink:href="#DejaVuSans-61"/><use x="415.039" xlink:href="#DejaVuSans-63"/><use x="470.02" xlink:href="#DejaVuSans-74"/><use x="509.229" xlink:href="#DejaVuSans-6f"/><use x="570.41" xlink:href="#DejaVuSans-72"/></g><g transform="translate(32.411817 287.708125)rotate(-90)scale(0.1 -0.1)"><defs><path id="DejaVuSans-76" d="M 191 3500 L 800 3500 L 1894 563 L 2988 3500 L 3597 3500 L 2284 0 L 1503 0 L 191 3500 z" transform="scale(0.015625)"/><path id="DejaVuSans-67" d="M 2906 1791 Q 2906 2416 2648 2759 Q 2391 3103 1925 3103 Q 1463 3103 1205 2759 Q 947 2416 947 1791 Q 947 1169 1205 825 Q 1463 481 1925 481 Q 2391 481 2648 825 Q 2906 1169 2906 1791 z M 3481 434 Q 3481 -459 3084 -895 Q 2688 -1331 1869 -1331 Q 1566 -1331 1297 -1286 Q 1028 -1241 775 -1147 L 775 -588 Q 1028 -725 1275 -790 Q 1522 -856 1778 -856 Q 2344 -856 2625 -561 Q 2906 -266 2906 331 L 2906 616 Q 2728 306 2450 153 Q 2172 0 1784 0 Q 1141 0 747 490 Q 353 981 353 1791 Q 353 2603 747 3093 Q 1141 3584 1784 3584 Q 2172 3584 2450 3431 Q 2728 3278 2906 2969 L 2906 3500 L 3481 3500 L 3481 434 z" transform="scale(0.015625)"/><path id="DejaVuSans-6d" d="M 3328 2828 Q 3544 3216 3844 3400 Q 4144 3584 4550 3584 Q 5097 3584 5394 3201 Q 5691 2819 5691 2113 L 5691 0 L 5113 0 L 5113 2094 Q 5113 2597 4934 2840 Q 4756 3084 4391 3084 Q 3944 3084 3684 2787 Q 3425 2491 3425 1978 L 3425 0 L 2847 0 L 2847 2094 Q 2847 2600 2669 2842 Q 2491 3084 2119 3084 Q 1678 3084 1418 2786 Q 1159 2488 1159 1978 L 1159 0 L 581 0 L 581 3500 L 1159 3500 L 1159 2956 Q 1356 3278 1631 3431 Q 1906 3584 2284 3584 Q 2666 3584 2933 3390 Q 3200 3197 3328 2828 z" transform="scale(0.015625)"/><path id="DejaVuSans-7a" d="M 353 3500 L 3084 3500 L 3084 2975 L 922 459 L 3084 459 L 3084 0 L 275 0 L 275 525 L 2438 3041 L 353 3041 L 353 3500 z" transform="scale(0.015625)"/></defs><use xlink:href="#DejaVuSans-28"/><use x="39.014" xlink:href="#DejaVuSans-61"/><use x="100.293" xlink:href="#DejaVuSans-76"/><use x="159.473" xlink:href="#DejaVuSans-65"/><use x="220.996" xlink:href="#DejaVuSans-72"/><use x="262.109" xlink:href="#DejaVuSans-61"/><use x="323.389" xlink:href="#DejaVuSans-67"/><use x="386.865" xlink:href="#DejaVuSans-65"/><use x="448.389" xlink:href="#DejaVuSans-20"/><use x="480.176" xlink:href="#DejaVuSans-74"/><use x="519.385" xlink:href="#DejaVuSans-72"/><use x="560.498" xlink:href="#DejaVuSans-61"/><use x="621.777" xlink:href="#DejaVuSans-76"/><use x="680.957" xlink:href="#DejaVuSans-65"/><use x="742.48" xlink:href="#DejaVuSans-6c"/><use x="770.264" xlink:href="#DejaVuSans-20"/><use x="802.051" xlink:href="#DejaVuSans-74"/><use x="841.26" xlink:href="#DejaVuSans-69"/><use x="869.043" xlink:href="#DejaVuSans-6d"/><use x="966.455" xlink:href="#DejaVuSans-65"/><use x="1027.979" xlink:href="#DejaVuSans-20"/><use x="1059.766" xlink:href="#DejaVuSans-6e"/><use x="1123.145" xlink:href="#DejaVuSans-6f"/><use x="1184.326" xlink:href="#DejaVuSans-72"/><use x="1223.689" xlink:href="#DejaVuSans-6d"/><use x="1321.102" xlink:href="#DejaVuSans-61"/><use x="1382.381" xlink:href="#DejaVuSans-6c"/><use x="1410.164" xlink:href="#DejaVuSans-69"/><use x="1437.947" xlink:href="#DejaVuSans-7a"/><use x="1490.438" xlink:href="#DejaVuSans-65"/><use x="1551.961" xlink:href="#DejaVuSans-64"/><use x="1615.438" xlink:href="#DejaVuSans-20"/><use x="1647.225" xlink:href="#DejaVuSans-74"/><use x="1686.434" xlink:href="#DejaVuSans-6f"/><use x="1747.615" xlink:href="#DejaVuSans-20"/><use x="1779.402" xlink:href="#DejaVuSans-53"/><use x="1842.879" xlink:href="#DejaVuSans-63"/><use x="1897.859" xlink:href="#DejaVuSans-65"/><use x="1959.383" xlink:href="#DejaVuSans-6e"/><use x="2022.762" xlink:href="#DejaVuSans-61"/><use x="2084.041" xlink:href="#DejaVuSans-72"/><use x="2125.154" xlink:href="#DejaVuSans-69"/><use x="2152.938" xlink:href="#DejaVuSans-6f"/><use x="2214.119" xlink:href="#DejaVuSans-20"/><use x="2245.906" xlink:href="#DejaVuSans-30"/><use x="2309.529" xlink:href="#DejaVuSans-29"/></g></g></g><g id="patch_53"><path d="M 51.854005 333.36 L 51.854005 7.2" style="fill:none;stroke:#000;stroke-width:.8;stroke-linejoin:miter;stroke-linecap:square"/></g><g id="patch_54"><path d="M 888.854005 333.36 L 888.854005 7.2" style="fill:none;stroke:#000;stroke-width:.8;stroke-linejoin:miter;stroke-linecap:square"/></g><g id="patch_55"><path d="M 51.854005 333.36 L 888.854005 333.36" style="fill:none;stroke:#000;stroke-width:.8;stroke-linejoin:miter;stroke-linecap:square"/></g><g id="patch_56"><path d="M 51.854005 7.2 L 888.854005 7.2" style="fill:none;stroke:#000;stroke-width:.8;stroke-linejoin:miter;stroke-linecap:square"/></g><g id="legend_1"><g id="patch_57"><path d="M 796.839942 88.590625 L 881.854005 88.590625 Q 883.854005 88.590625 883.854005 86.590625 L 883.854005 14.2 Q 883.854005 12.2 881.854005 12.2 L 796.839942 12.2 Q 794.839942 12.2 794.839942 14.2 L 794.839942 86.590625 Q 794.839942 88.590625 796.839942 88.590625 z" style="fill:#fff;opacity:.8;stroke:#ccc;stroke-linejoin:miter"/></g><g id="patch_58"><path d="M 798.839942 23.798437 L 818.839942 23.798437 L 818.839942 16.798437 L 798.839942 16.798437 z" style="fill:#1f77b4"/></g><g id="text_18"><g transform="translate(826.839942 23.798437)scale(0.1 -0.1)"><use xlink:href="#DejaVuSans-53"/><use x="63.477" xlink:href="#DejaVuSans-63"/><use x="118.457" xlink:href="#DejaVuSans-65"/><use x="179.98" xlink:href="#DejaVuSans-6e"/><use x="243.359" xlink:href="#DejaVuSans-61"/><use x="304.639" xlink:href="#DejaVuSans-72"/><use x="345.752" xlink:href="#DejaVuSans-69"/><use x="373.535" xlink:href="#DejaVuSans-6f"/><use x="434.717" xlink:href="#DejaVuSans-20"/><use x="466.504" xlink:href="#DejaVuSans-30"/></g></g><g id="patch_59"><path d="M 798.839942 38.476562 L 818.839942 38.476562 L 818.839942 31.476562 L 798.839942 31.476562 z" style="fill:#ff7f0e"/></g><g id="text_19"><g transform="translate(826.839942 38.476562)scale(0.1 -0.1)"><use xlink:href="#DejaVuSans-53"/><use x="63.477" xlink:href="#DejaVuSans-63"/><use x="118.457" xlink:href="#DejaVuSans-65"/><use x="179.98" xlink:href="#DejaVuSans-6e"/><use x="243.359" xlink:href="#DejaVuSans-61"/><use x="304.639" xlink:href="#DejaVuSans-72"/><use x="345.752" xlink:href="#DejaVuSans-69"/><use x="373.535" xlink:href="#DejaVuSans-6f"/><use x="434.717" xlink:href="#DejaVuSans-20"/><use x="466.504" xlink:href="#DejaVuSans-31"/></g></g><g id="patch_60"><path d="M 798.839942 53.154687 L 818.839942 53.154687 L 818.839942 46.154687 L 798.839942 46.154687 z" style="fill:#2ca02c"/></g><g id="text_20"><g transform="translate(826.839942 53.154687)scale(0.1 -0.1)"><use xlink:href="#DejaVuSans-53"/><use x="63.477" xlink:href="#DejaVuSans-63"/><use x="118.457" xlink:href="#DejaVuSans-65"/><use x="179.98" xlink:href="#DejaVuSans-6e"/><use x="243.359" xlink:href="#DejaVuSans-61"/><use x="304.639" xlink:href="#DejaVuSans-72"/><use x="345.752" xlink:href="#DejaVuSans-69"/><use x="373.535" xlink:href="#DejaVuSans-6f"/><use x="434.717" xlink:href="#DejaVuSans-20"/><use x="466.504" xlink:href="#DejaVuSans-32"/></g></g><g id="patch_61"><path d="M 798.839942 67.832812 L 818.839942 67.832812 L 818.839942 60.832812 L 798.839942 60.832812 z" style="fill:#d62728"/></g><g id="text_21"><g transform="translate(826.839942 67.832812)scale(0.1 -0.1)"><use xlink:href="#DejaVuSans-53"/><use x="63.477" xlink:href="#DejaVuSans-63"/><use x="118.457" xlink:href="#DejaVuSans-65"/><use x="179.98" xlink:href="#DejaVuSans-6e"/><use x="243.359" xlink:href="#DejaVuSans-61"/><use x="304.639" xlink:href="#DejaVuSans-72"/><use x="345.752" xlink:href="#DejaVuSans-69"/><use x="373.535" xlink:href="#DejaVuSans-6f"/><use x="434.717" xlink:href="#DejaVuSans-20"/><use x="466.504" xlink:href="#DejaVuSans-33"/></g></g><g id="patch_62"><path d="M 798.839942 82.510938 L 818.839942 82.510938 L 818.839942 75.510938 L 798.839942 75.510938 z" style="fill:#9467bd"/></g><g id="text_22"><g transform="translate(826.839942 82.510938)scale(0.1 -0.1)"><use xlink:href="#DejaVuSans-53"/><use x="63.477" xlink:href="#DejaVuSans-63"/><use x="118.457" xlink:href="#DejaVuSans-65"/><use x="179.98" xlink:href="#DejaVuSans-6e"/><use x="243.359" xlink:href="#DejaVuSans-61"/><use x="304.639" xlink:href="#DejaVuSans-72"/><use x="345.752" xlink:href="#DejaVuSans-69"/><use x="373.535" xlink:href="#DejaVuSans-6f"/><use x="434.717" xlink:href="#DejaVuSans-20"/><use x="466.504" xlink:href="#DejaVuSans-34"/></g></g></g></g></g><defs><clipPath id="p5b275e39e9"><rect width="837" height="326.16" x="51.854" y="7.2"/></clipPath></defs></svg>