<svg xmlns="http://www.w3.org/2000/svg" xmlns:xlink="http://www.w3.org/1999/xlink" width="576" height="384" version="1.1" viewBox="0 0 432 288"><metadata><rdf:RDF xmlns:cc="http://creativecommons.org/ns#" xmlns:dc="http://purl.org/dc/elements/1.1/" xmlns:rdf="http://www.w3.org/1999/02/22-rdf-syntax-ns#"><cc:Work><dc:type rdf:resource="http://purl.org/dc/dcmitype/StillImage"/><dc:date>2022-03-18T13:10:15.069581</dc:date><dc:format>image/svg+xml</dc:format><dc:creator><cc:Agent><dc:title>Matplotlib v3.5.1, https://matplotlib.org/</dc:title></cc:Agent></dc:creator></cc:Work></rdf:RDF></metadata><defs><style type="text/css">*{stroke-linejoin:round;stroke-linecap:butt}</style></defs><g id="figure_1"><g id="patch_1"><path d="M 0 288 L 432 288 L 432 0 L 0 0 L 0 288 z" style="fill:none"/></g><g id="axes_1"><g id="patch_2"><path d="M 54 252 L 388.8 252 L 388.8 34.56 L 54 34.56 z" style="fill:#fff"/></g><g id="PolyCollection_1"><defs><path id="m94518fb360" d="M 70.42825 -36.050427 L 70.42825 -36 L 71.951635 -36 L 73.47502 -36 L 74.998404 -36 L 76.521789 -36 L 78.045174 -36 L 79.568559 -36 L 81.091943 -36 L 82.615328 -36 L 84.138713 -36 L 85.662098 -36 L 87.185482 -36 L 88.708867 -36 L 90.232252 -36 L 91.755637 -36 L 93.279021 -36 L 94.802406 -36 L 96.325791 -36 L 97.849176 -36 L 99.372561 -36 L 100.895945 -36 L 102.41933 -36 L 103.942715 -36 L 105.4661 -36 L 106.989484 -36 L 108.512869 -36 L 110.036254 -36 L 111.559639 -36 L 113.083023 -36 L 114.606408 -36 L 116.129793 -36 L 117.653178 -36 L 119.176562 -36 L 120.699947 -36 L 122.223332 -36 L 123.746717 -36 L 125.270102 -36 L 126.793486 -36 L 128.316871 -36 L 129.840256 -36 L 131.363641 -36 L 132.887025 -36 L 134.41041 -36 L 135.933795 -36 L 137.45718 -36 L 138.980564 -36 L 140.503949 -36 L 142.027334 -36 L 143.550719 -36 L 145.074103 -36 L 146.597488 -36 L 148.120873 -36 L 149.644258 -36 L 151.167643 -36 L 152.691027 -36 L 154.214412 -36 L 155.737797 -36 L 157.261182 -36 L 158.784566 -36 L 160.307951 -36 L 161.831336 -36 L 163.354721 -36 L 164.878105 -36 L 166.40149 -36 L 167.924875 -36 L 169.44826 -36 L 170.971644 -36 L 172.495029 -36 L 174.018414 -36 L 175.541799 -36 L 177.065184 -36 L 178.588568 -36 L 180.111953 -36 L 181.635338 -36 L 183.158723 -36 L 184.682107 -36 L 186.205492 -36 L 187.728877 -36 L 189.252262 -36 L 190.775646 -36 L 192.299031 -36 L 193.822416 -36 L 195.345801 -36 L 196.869185 -36 L 198.39257 -36 L 199.915955 -36 L 201.43934 -36 L 202.962725 -36 L 204.486109 -36 L 206.009494 -36 L 207.532879 -36 L 209.056264 -36 L 210.579648 -36 L 212.103033 -36 L 213.626418 -36 L 215.149803 -36 L 216.673187 -36 L 218.196572 -36 L 219.719957 -36 L 221.243342 -36 L 222.766726 -36 L 224.290111 -36 L 225.813496 -36 L 227.336881 -36 L 228.860266 -36 L 230.38365 -36 L 231.907035 -36 L 233.43042 -36 L 234.953805 -36 L 236.477189 -36 L 238.000574 -36 L 239.523959 -36 L 241.047344 -36 L 242.570728 -36 L 244.094113 -36 L 245.617498 -36 L 247.140883 -36 L 248.664267 -36 L 250.187652 -36 L 251.711037 -36 L 253.234422 -36 L 254.757807 -36 L 256.281191 -36 L 257.804576 -36 L 259.327961 -36 L 260.851346 -36 L 262.37473 -36 L 263.898115 -36 L 265.4215 -36 L 266.944885 -36 L 268.468269 -36 L 269.991654 -36 L 271.515039 -36 L 273.038424 -36 L 274.561808 -36 L 276.085193 -36 L 277.608578 -36 L 279.131963 -36 L 280.655348 -36 L 282.178732 -36 L 283.702117 -36 L 285.225502 -36 L 286.748887 -36 L 288.272271 -36 L 289.795656 -36 L 291.319041 -36 L 292.842426 -36 L 294.36581 -36 L 295.889195 -36 L 297.41258 -36 L 298.935965 -36 L 300.459349 -36 L 301.982734 -36 L 303.506119 -36 L 305.029504 -36 L 306.552889 -36 L 308.076273 -36 L 309.599658 -36 L 311.123043 -36 L 312.646428 -36 L 314.169812 -36 L 315.693197 -36 L 317.216582 -36 L 318.739967 -36 L 320.263351 -36 L 321.786736 -36 L 323.310121 -36 L 324.833506 -36 L 326.35689 -36 L 327.880275 -36 L 329.40366 -36 L 330.927045 -36 L 332.45043 -36 L 333.973814 -36 L 335.497199 -36 L 337.020584 -36 L 338.543969 -36 L 340.067353 -36 L 341.590738 -36 L 343.114123 -36 L 344.637508 -36 L 346.160892 -36 L 347.684277 -36 L 349.207662 -36 L 350.731047 -36 L 352.254431 -36 L 353.777816 -36 L 355.301201 -36 L 356.824586 -36 L 358.347971 -36 L 359.871355 -36 L 361.39474 -36 L 362.918125 -36 L 364.44151 -36 L 365.964894 -36 L 367.488279 -36 L 369.011664 -36 L 370.535049 -36 L 372.058433 -36 L 373.581818 -36 L 373.581818 -36.00424 L 373.581818 -36.00424 L 372.058433 -36.010837 L 370.535049 -36.025122 L 369.011664 -36.052908 L 367.488279 -36.101469 L 365.964894 -36.177812 L 364.44151 -36.286077 L 362.918125 -36.425369 L 361.39474 -36.589601 L 359.871355 -36.769788 L 358.347971 -36.957041 L 356.824586 -37.143457 L 355.301201 -37.319644 L 353.777816 -37.471264 L 352.254431 -37.578974 L 350.731047 -37.624036 L 349.207662 -37.596675 L 347.684277 -37.501152 L 346.160892 -37.353768 L 344.637508 -37.175742 L 343.114123 -36.986526 L 341.590738 -36.801279 L 340.067353 -36.63171 L 338.543969 -36.486924 L 337.020584 -36.372469 L 335.497199 -36.28875 L 333.973814 -36.230975 L 332.45043 -36.191342 L 330.927045 -36.162099 L 329.40366 -36.137679 L 327.880275 -36.115169 L 326.35689 -36.093663 L 324.833506 -36.07347 L 323.310121 -36.055728 L 321.786736 -36.042533 L 320.263351 -36.037553 L 318.739967 -36.047196 L 317.216582 -36.082181 L 315.693197 -36.158653 L 314.169812 -36.29725 L 312.646428 -36.518529 L 311.123043 -36.834618 L 309.599658 -37.239694 L 308.076273 -37.704139 L 306.552889 -38.17693 L 305.029504 -38.597063 L 303.506119 -38.909681 L 301.982734 -39.079626 L 300.459349 -39.096783 L 298.935965 -38.972481 L 297.41258 -38.731043 L 295.889195 -38.402097 L 294.36581 -38.017007 L 292.842426 -37.608738 L 291.319041 -37.211672 L 289.795656 -36.858472 L 288.272271 -36.574326 L 286.748887 -36.371774 L 285.225502 -36.249287 L 283.702117 -36.194177 L 282.178732 -36.18783 L 280.655348 -36.210672 L 279.131963 -36.245476 L 277.608578 -36.278974 L 276.085193 -36.302353 L 274.561808 -36.311069 L 273.038424 -36.304178 L 271.515039 -36.28334 L 269.991654 -36.251752 L 268.468269 -36.213253 L 266.944885 -36.171757 L 265.4215 -36.130918 L 263.898115 -36.093866 L 262.37473 -36.062884 L 260.851346 -36.039105 L 259.327961 -36.02244 L 257.804576 -36.011823 L 256.281191 -36.005696 L 254.757807 -36.002501 L 253.234422 -36.000999 L 251.711037 -36.000362 L 250.187652 -36.000119 L 248.664267 -36.000035 L 247.140883 -36.00001 L 245.617498 -36.000002 L 244.094113 -36.000001 L 242.570728 -36 L 241.047344 -36 L 239.523959 -36 L 238.000574 -36 L 236.477189 -36 L 234.953805 -36 L 233.43042 -36 L 231.907035 -36 L 230.38365 -36 L 228.860266 -36 L 227.336881 -36 L 225.813496 -36 L 224.290111 -36 L 222.766726 -36 L 221.243342 -36 L 219.719957 -36 L 218.196572 -36 L 216.673187 -36 L 215.149803 -36 L 213.626418 -36 L 212.103033 -36 L 210.579648 -36 L 209.056264 -36.000001 L 207.532879 -36.000004 L 206.009494 -36.00002 L 204.486109 -36.000082 L 202.962725 -36.000312 L 201.43934 -36.001074 L 199.915955 -36.003343 L 198.39257 -36.00944 L 196.869185 -36.024205 L 195.345801 -36.05648 L 193.822416 -36.120291 L 192.299031 -36.234815 L 190.775646 -36.422514 L 189.252262 -36.706136 L 187.728877 -37.106888 L 186.205492 -37.646386 L 184.682107 -38.352338 L 183.158723 -39.263118 L 181.635338 -40.42257 L 180.111953 -41.858053 L 178.588568 -43.543945 L 177.065184 -45.366775 L 175.541799 -47.117914 L 174.018414 -48.534355 L 172.495029 -49.383894 L 170.971644 -49.560277 L 169.44826 -49.139894 L 167.924875 -48.368603 L 166.40149 -47.584498 L 164.878105 -47.112448 L 163.354721 -47.171133 L 161.831336 -47.818699 L 160.307951 -48.945659 L 158.784566 -50.310851 L 157.261182 -51.605685 L 155.737797 -52.524742 L 154.214412 -52.824149 L 152.691027 -52.362369 L 151.167643 -51.127145 L 149.644258 -49.246545 L 148.120873 -46.971776 L 146.597488 -44.624249 L 145.074103 -42.521475 L 143.550719 -40.913719 L 142.027334 -39.955785 L 140.503949 -39.712263 L 138.980564 -40.175598 L 137.45718 -41.280976 L 135.933795 -42.92113 L 134.41041 -44.974536 L 132.887025 -47.348735 L 131.363641 -50.016076 L 129.840256 -53.00659 L 128.316871 -56.340053 L 126.793486 -59.920433 L 125.270102 -63.452555 L 123.746717 -66.443552 L 122.223332 -68.314041 L 120.699947 -68.587239 L 119.176562 -67.081047 L 117.653178 -64.019683 L 116.129793 -60.009192 L 114.606408 -55.872161 L 113.083023 -52.393403 L 111.559639 -50.069669 L 110.036254 -48.963321 L 108.512869 -48.722625 L 106.989484 -48.761591 L 105.4661 -48.521815 L 103.942715 -47.704778 L 102.41933 -46.384024 L 100.895945 -44.968193 L 99.372561 -44.048525 L 97.849176 -44.193592 L 96.325791 -45.747893 L 94.802406 -48.677393 L 93.279021 -52.506246 L 91.755637 -56.391196 L 90.232252 -59.347938 L 88.708867 -60.569113 L 87.185482 -59.702719 L 85.662098 -56.957917 L 84.138713 -52.989913 L 82.615328 -48.632612 L 81.091943 -44.616401 L 79.568559 -41.390462 L 78.045174 -39.091641 L 76.521789 -37.624369 L 74.998404 -36.781061 L 73.47502 -36.343318 L 71.951635 -36.137784 L 70.42825 -36.050427 z"/></defs><g clip-path="url(#pff203f4f37)"><use x="0" y="288" xlink:href="#m94518fb360" style="fill:#a157db;fill-opacity:.5"/></g></g><g id="PolyCollection_2"><defs><path id="mbecfbe1d04" d="M 69.218182 -36.08064 L 69.218182 -36 L 70.153419 -36 L 71.088656 -36 L 72.023893 -36 L 72.95913 -36 L 73.894367 -36 L 74.829604 -36 L 75.764841 -36 L 76.700079 -36 L 77.635316 -36 L 78.570553 -36 L 79.50579 -36 L 80.441027 -36 L 81.376264 -36 L 82.311501 -36 L 83.246738 -36 L 84.181975 -36 L 85.117212 -36 L 86.052449 -36 L 86.987687 -36 L 87.922924 -36 L 88.858161 -36 L 89.793398 -36 L 90.728635 -36 L 91.663872 -36 L 92.599109 -36 L 93.534346 -36 L 94.469583 -36 L 95.40482 -36 L 96.340058 -36 L 97.275295 -36 L 98.210532 -36 L 99.145769 -36 L 100.081006 -36 L 101.016243 -36 L 101.95148 -36 L 102.886717 -36 L 103.821954 -36 L 104.757191 -36 L 105.692428 -36 L 106.627666 -36 L 107.562903 -36 L 108.49814 -36 L 109.433377 -36 L 110.368614 -36 L 111.303851 -36 L 112.239088 -36 L 113.174325 -36 L 114.109562 -36 L 115.044799 -36 L 115.980036 -36 L 116.915274 -36 L 117.850511 -36 L 118.785748 -36 L 119.720985 -36 L 120.656222 -36 L 121.591459 -36 L 122.526696 -36 L 123.461933 -36 L 124.39717 -36 L 125.332407 -36 L 126.267645 -36 L 127.202882 -36 L 128.138119 -36 L 129.073356 -36 L 130.008593 -36 L 130.94383 -36 L 131.879067 -36 L 132.814304 -36 L 133.749541 -36 L 134.684778 -36 L 135.620015 -36 L 136.555253 -36 L 137.49049 -36 L 138.425727 -36 L 139.360964 -36 L 140.296201 -36 L 141.231438 -36 L 142.166675 -36 L 143.101912 -36 L 144.037149 -36 L 144.972386 -36 L 145.907623 -36 L 146.842861 -36 L 147.778098 -36 L 148.713335 -36 L 149.648572 -36 L 150.583809 -36 L 151.519046 -36 L 152.454283 -36 L 153.38952 -36 L 154.324757 -36 L 155.259994 -36 L 156.195232 -36 L 157.130469 -36 L 158.065706 -36 L 159.000943 -36 L 159.93618 -36 L 160.871417 -36 L 161.806654 -36 L 162.741891 -36 L 163.677128 -36 L 164.612365 -36 L 165.547602 -36 L 166.48284 -36 L 167.418077 -36 L 168.353314 -36 L 169.288551 -36 L 170.223788 -36 L 171.159025 -36 L 172.094262 -36 L 173.029499 -36 L 173.964736 -36 L 174.899973 -36 L 175.83521 -36 L 176.770448 -36 L 177.705685 -36 L 178.640922 -36 L 179.576159 -36 L 180.511396 -36 L 181.446633 -36 L 182.38187 -36 L 183.317107 -36 L 184.252344 -36 L 185.187581 -36 L 186.122818 -36 L 187.058056 -36 L 187.993293 -36 L 188.92853 -36 L 189.863767 -36 L 190.799004 -36 L 191.734241 -36 L 192.669478 -36 L 193.604715 -36 L 194.539952 -36 L 195.475189 -36 L 196.410427 -36 L 197.345664 -36 L 198.280901 -36 L 199.216138 -36 L 200.151375 -36 L 201.086612 -36 L 202.021849 -36 L 202.957086 -36 L 203.892323 -36 L 204.82756 -36 L 205.762797 -36 L 206.698035 -36 L 207.633272 -36 L 208.568509 -36 L 209.503746 -36 L 210.438983 -36 L 211.37422 -36 L 212.309457 -36 L 213.244694 -36 L 214.179931 -36 L 215.115168 -36 L 216.050405 -36 L 216.985643 -36 L 217.92088 -36 L 218.856117 -36 L 219.791354 -36 L 220.726591 -36 L 221.661828 -36 L 222.597065 -36 L 223.532302 -36 L 224.467539 -36 L 225.402776 -36 L 226.338014 -36 L 227.273251 -36 L 228.208488 -36 L 229.143725 -36 L 230.078962 -36 L 231.014199 -36 L 231.949436 -36 L 232.884673 -36 L 233.81991 -36 L 234.755147 -36 L 235.690384 -36 L 236.625622 -36 L 237.560859 -36 L 238.496096 -36 L 239.431333 -36 L 240.36657 -36 L 241.301807 -36 L 242.237044 -36 L 243.172281 -36 L 244.107518 -36 L 245.042755 -36 L 245.977992 -36 L 246.91323 -36 L 247.848467 -36 L 248.783704 -36 L 249.718941 -36 L 250.654178 -36 L 251.589415 -36 L 252.524652 -36 L 253.459889 -36 L 254.395126 -36 L 255.330363 -36 L 255.330363 -36.010024 L 255.330363 -36.010024 L 254.395126 -36.021796 L 253.459889 -36.044803 L 252.524652 -36.087172 L 251.589415 -36.160734 L 250.654178 -36.28119 L 249.718941 -36.46719 L 248.783704 -36.737819 L 247.848467 -37.108266 L 246.91323 -37.584079 L 245.977992 -38.155298 L 245.042755 -38.792654 L 244.107518 -39.448299 L 243.172281 -40.062698 L 242.237044 -40.577192 L 241.301807 -40.948946 L 240.36657 -41.162983 L 239.431333 -41.236169 L 238.496096 -41.210789 L 237.560859 -41.139763 L 236.625622 -41.069242 L 235.690384 -41.025382 L 234.755147 -41.009981 L 233.81991 -41.005491 L 232.884673 -40.986136 L 231.949436 -40.929942 L 231.014199 -40.827222 L 230.078962 -40.683273 L 229.143725 -40.515583 L 228.208488 -40.347546 L 227.273251 -40.201206 L 226.338014 -40.091292 L 225.402776 -40.022016 L 224.467539 -39.987193 L 223.532302 -39.973238 L 222.597065 -39.96371 L 221.661828 -39.943652 L 220.726591 -39.902282 L 219.791354 -39.83351 L 218.856117 -39.734806 L 217.92088 -39.60554 L 216.985643 -39.445771 L 216.050405 -39.255873 L 215.115168 -39.0369 L 214.179931 -38.791354 L 213.244694 -38.524027 L 212.309457 -38.24259 L 211.37422 -37.957491 L 210.438983 -37.68085 L 209.503746 -37.424431 L 208.568509 -37.197336 L 207.633272 -37.004325 L 206.698035 -36.845456 L 205.762797 -36.717094 L 204.82756 -36.613676 L 203.892323 -36.529443 L 202.957086 -36.459531 L 202.021849 -36.40031 L 201.086612 -36.349216 L 200.151375 -36.304416 L 199.216138 -36.264539 L 198.280901 -36.228519 L 197.345664 -36.195543 L 196.410427 -36.165039 L 195.475189 -36.136692 L 194.539952 -36.110458 L 193.604715 -36.086556 L 192.669478 -36.065372 L 191.734241 -36.047318 L 190.799004 -36.032664 L 189.863767 -36.021414 L 188.92853 -36.013289 L 187.993293 -36.007786 L 187.058056 -36.004299 L 186.122818 -36.002233 L 185.187581 -36.00109 L 184.252344 -36.0005 L 183.317107 -36.000215 L 182.38187 -36.000087 L 181.446633 -36.000033 L 180.511396 -36.000012 L 179.576159 -36.000004 L 178.640922 -36.000001 L 177.705685 -36 L 176.770448 -36 L 175.83521 -36 L 174.899973 -36 L 173.964736 -36 L 173.029499 -36 L 172.094262 -36 L 171.159025 -36 L 170.223788 -36 L 169.288551 -36 L 168.353314 -36 L 167.418077 -36 L 166.48284 -36 L 165.547602 -36 L 164.612365 -36.000001 L 163.677128 -36.000004 L 162.741891 -36.000016 L 161.806654 -36.000053 L 160.871417 -36.000166 L 159.93618 -36.000489 L 159.000943 -36.001353 L 158.065706 -36.003519 L 157.130469 -36.008605 L 156.195232 -36.019795 L 155.259994 -36.042874 L 154.324757 -36.087525 L 153.38952 -36.168618 L 152.454283 -36.307058 L 151.519046 -36.529636 L 150.583809 -36.867525 L 149.648572 -37.353529 L 148.713335 -38.018776 L 147.778098 -38.889809 L 146.842861 -39.986688 L 145.907623 -41.321757 L 144.972386 -42.897798 L 144.037149 -44.704299 L 143.101912 -46.711903 L 142.166675 -48.867241 L 141.231438 -51.091758 L 140.296201 -53.28735 L 139.360964 -55.348424 L 138.425727 -57.175936 L 137.49049 -58.686865 L 136.555253 -59.814374 L 135.620015 -60.499466 L 134.684778 -60.681256 L 133.749541 -60.295806 L 132.814304 -59.290057 L 131.879067 -57.648718 L 130.94383 -55.42274 L 130.008593 -52.744092 L 129.073356 -49.816143 L 128.138119 -46.879928 L 127.202882 -44.168011 L 126.267645 -41.863126 L 125.332407 -40.07577 L 124.39717 -38.845833 L 123.461933 -38.163328 L 122.526696 -37.997262 L 121.591459 -38.321063 L 120.656222 -39.126523 L 119.720985 -40.423082 L 118.785748 -42.223407 L 117.850511 -44.519151 L 116.915274 -47.253073 L 115.980036 -50.295914 L 115.044799 -53.437823 L 114.109562 -56.403017 L 113.174325 -58.89087 L 112.239088 -60.637197 L 111.303851 -61.47926 L 110.368614 -61.40243 L 109.433377 -60.549791 L 108.49814 -59.188573 L 107.562903 -57.644283 L 106.627666 -56.226764 L 105.692428 -55.17546 L 104.757191 -54.641741 L 103.821954 -54.708422 L 102.886717 -55.428546 L 101.95148 -56.855919 L 101.016243 -59.043715 L 100.081006 -62.004041 L 99.145769 -65.643714 L 98.210532 -69.70925 L 97.275295 -73.777664 L 96.340058 -77.315052 L 95.40482 -79.796531 L 94.469583 -80.85087 L 93.534346 -80.375824 L 92.599109 -78.575839 L 91.663872 -75.902117 L 90.728635 -72.914265 L 89.793398 -70.114857 L 88.858161 -67.817999 L 87.922924 -66.095904 L 86.987687 -64.812341 L 86.052449 -63.716112 L 85.117212 -62.548251 L 84.181975 -61.120792 L 83.246738 -59.347268 L 82.311501 -57.23134 L 81.376264 -54.835899 L 80.441027 -52.254666 L 79.50579 -49.596283 L 78.570553 -46.977542 L 77.635316 -44.516616 L 76.700079 -42.32049 L 75.764841 -40.468445 L 74.829604 -38.998657 L 73.894367 -37.904482 L 72.95913 -37.142044 L 72.023893 -36.64543 L 71.088656 -36.343296 L 70.153419 -36.171666 L 69.218182 -36.08064 z"/></defs><g clip-path="url(#pff203f4f37)"><use x="0" y="288" xlink:href="#mbecfbe1d04" style="fill:#57d3db;fill-opacity:.5"/></g></g><g id="PolyCollection_3"><defs><path id="m4816734ecb" d="M 74.693612 -36.231694 L 74.693612 -36 L 75.038633 -36 L 75.383654 -36 L 75.728675 -36 L 76.073695 -36 L 76.418716 -36 L 76.763737 -36 L 77.108758 -36 L 77.453778 -36 L 77.798799 -36 L 78.14382 -36 L 78.488841 -36 L 78.833862 -36 L 79.178882 -36 L 79.523903 -36 L 79.868924 -36 L 80.213945 -36 L 80.558965 -36 L 80.903986 -36 L 81.249007 -36 L 81.594028 -36 L 81.939049 -36 L 82.284069 -36 L 82.62909 -36 L 82.974111 -36 L 83.319132 -36 L 83.664152 -36 L 84.009173 -36 L 84.354194 -36 L 84.699215 -36 L 85.044236 -36 L 85.389256 -36 L 85.734277 -36 L 86.079298 -36 L 86.424319 -36 L 86.769339 -36 L 87.11436 -36 L 87.459381 -36 L 87.804402 -36 L 88.149423 -36 L 88.494443 -36 L 88.839464 -36 L 89.184485 -36 L 89.529506 -36 L 89.874526 -36 L 90.219547 -36 L 90.564568 -36 L 90.909589 -36 L 91.25461 -36 L 91.59963 -36 L 91.944651 -36 L 92.289672 -36 L 92.634693 -36 L 92.979713 -36 L 93.324734 -36 L 93.669755 -36 L 94.014776 -36 L 94.359797 -36 L 94.704817 -36 L 95.049838 -36 L 95.394859 -36 L 95.73988 -36 L 96.0849 -36 L 96.429921 -36 L 96.774942 -36 L 97.119963 -36 L 97.464984 -36 L 97.810004 -36 L 98.155025 -36 L 98.500046 -36 L 98.845067 -36 L 99.190087 -36 L 99.535108 -36 L 99.880129 -36 L 100.22515 -36 L 100.57017 -36 L 100.915191 -36 L 101.260212 -36 L 101.605233 -36 L 101.950254 -36 L 102.295274 -36 L 102.640295 -36 L 102.985316 -36 L 103.330337 -36 L 103.675357 -36 L 104.020378 -36 L 104.365399 -36 L 104.71042 -36 L 105.055441 -36 L 105.400461 -36 L 105.745482 -36 L 106.090503 -36 L 106.435524 -36 L 106.780544 -36 L 107.125565 -36 L 107.470586 -36 L 107.815607 -36 L 108.160628 -36 L 108.505648 -36 L 108.850669 -36 L 109.19569 -36 L 109.540711 -36 L 109.885731 -36 L 110.230752 -36 L 110.575773 -36 L 110.920794 -36 L 111.265815 -36 L 111.610835 -36 L 111.955856 -36 L 112.300877 -36 L 112.645898 -36 L 112.990918 -36 L 113.335939 -36 L 113.68096 -36 L 114.025981 -36 L 114.371002 -36 L 114.716022 -36 L 115.061043 -36 L 115.406064 -36 L 115.751085 -36 L 116.096105 -36 L 116.441126 -36 L 116.786147 -36 L 117.131168 -36 L 117.476189 -36 L 117.821209 -36 L 118.16623 -36 L 118.511251 -36 L 118.856272 -36 L 119.201292 -36 L 119.546313 -36 L 119.891334 -36 L 120.236355 -36 L 120.581376 -36 L 120.926396 -36 L 121.271417 -36 L 121.616438 -36 L 121.961459 -36 L 122.306479 -36 L 122.6515 -36 L 122.996521 -36 L 123.341542 -36 L 123.686563 -36 L 124.031583 -36 L 124.376604 -36 L 124.721625 -36 L 125.066646 -36 L 125.411666 -36 L 125.756687 -36 L 126.101708 -36 L 126.446729 -36 L 126.79175 -36 L 127.13677 -36 L 127.481791 -36 L 127.826812 -36 L 128.171833 -36 L 128.516853 -36 L 128.861874 -36 L 129.206895 -36 L 129.551916 -36 L 129.896937 -36 L 130.241957 -36 L 130.586978 -36 L 130.931999 -36 L 131.27702 -36 L 131.62204 -36 L 131.967061 -36 L 132.312082 -36 L 132.657103 -36 L 133.002124 -36 L 133.347144 -36 L 133.692165 -36 L 134.037186 -36 L 134.382207 -36 L 134.727227 -36 L 135.072248 -36 L 135.417269 -36 L 135.76229 -36 L 136.107311 -36 L 136.452331 -36 L 136.797352 -36 L 137.142373 -36 L 137.487394 -36 L 137.832414 -36 L 138.177435 -36 L 138.522456 -36 L 138.867477 -36 L 139.212497 -36 L 139.557518 -36 L 139.902539 -36 L 140.24756 -36 L 140.592581 -36 L 140.937601 -36 L 141.282622 -36 L 141.627643 -36 L 141.972664 -36 L 142.317684 -36 L 142.662705 -36 L 143.007726 -36 L 143.352747 -36 L 143.352747 -36.046565 L 143.352747 -36.046565 L 143.007726 -36.098945 L 142.662705 -36.199077 L 142.317684 -36.379515 L 141.972664 -36.686022 L 141.627643 -37.176813 L 141.282622 -37.917501 L 140.937601 -38.970789 L 140.592581 -40.381505 L 140.24756 -42.159769 L 139.902539 -44.266942 L 139.557518 -46.609491 L 139.212497 -49.044311 L 138.867477 -51.395614 L 138.522456 -53.47959 L 138.177435 -55.130528 L 137.832414 -56.222155 L 137.487394 -56.680508 L 137.142373 -56.487987 L 136.797352 -55.68055 L 136.452331 -54.340325 L 136.107311 -52.584879 L 135.76229 -50.553604 L 135.417269 -48.392015 L 135.072248 -46.235996 L 134.727227 -44.198881 L 134.382207 -42.363744 L 134.037186 -40.781681 L 133.692165 -39.475045 L 133.347144 -38.443828 L 133.002124 -37.673606 L 132.657103 -37.144283 L 132.312082 -36.839319 L 131.967061 -36.754933 L 131.62204 -36.907923 L 131.27702 -37.339812 L 130.931999 -38.114412 L 130.586978 -39.306268 L 130.241957 -40.979158 L 129.896937 -43.157096 L 129.551916 -45.794474 L 129.206895 -48.755465 L 128.861874 -51.813267 L 128.516853 -54.675601 L 128.171833 -57.034282 L 127.826812 -58.626798 L 127.481791 -59.291313 L 127.13677 -58.997262 L 126.79175 -57.842228 L 126.446729 -56.018358 L 126.101708 -53.762238 L 125.756687 -51.305964 L 125.411666 -48.84323 L 125.066646 -46.515506 L 124.721625 -44.414734 L 124.376604 -42.594353 L 124.031583 -41.080641 L 123.686563 -39.879974 L 123.341542 -38.981755 L 122.996521 -38.359371 L 122.6515 -37.97193 L 122.306479 -37.76824 L 121.961459 -37.692788 L 121.616438 -37.692257 L 121.271417 -37.720939 L 120.926396 -37.743991 L 120.581376 -37.738358 L 120.236355 -37.691925 L 119.891334 -37.601703 L 119.546313 -37.471715 L 119.201292 -37.310881 L 118.856272 -37.130968 L 118.511251 -36.944604 L 118.16623 -36.763486 L 117.821209 -36.596994 L 117.476189 -36.451428 L 117.131168 -36.329897 L 116.786147 -36.232752 L 116.441126 -36.158303 L 116.096105 -36.10359 L 115.751085 -36.065072 L 115.406064 -36.039142 L 115.061043 -36.022489 L 114.716022 -36.012313 L 114.371002 -36.00641 L 114.025981 -36.003167 L 113.68096 -36.001483 L 113.335939 -36.000657 L 112.990918 -36.000275 L 112.645898 -36.000109 L 112.300877 -36.000041 L 111.955856 -36.000014 L 111.610835 -36.000005 L 111.265815 -36.000001 L 110.920794 -36 L 110.575773 -36 L 110.230752 -36 L 109.885731 -36 L 109.540711 -36 L 109.19569 -36 L 108.850669 -36.000001 L 108.505648 -36.000005 L 108.160628 -36.000016 L 107.815607 -36.000049 L 107.470586 -36.000144 L 107.125565 -36.000397 L 106.780544 -36.001044 L 106.435524 -36.002613 L 106.090503 -36.006233 L 105.745482 -36.014181 L 105.400461 -36.030781 L 105.055441 -36.063779 L 104.71042 -36.12619 L 104.365399 -36.238439 L 104.020378 -36.430265 L 103.675357 -36.741399 L 103.330337 -37.219662 L 102.985316 -37.915135 L 102.640295 -38.869761 L 102.295274 -40.10333 L 101.950254 -41.599041 L 101.605233 -43.2938 L 101.260212 -45.078917 L 100.915191 -46.814711 L 100.57017 -48.357908 L 100.22515 -49.594992 L 99.880129 -50.470786 L 99.535108 -51.001878 L 99.190087 -51.269672 L 98.845067 -51.395656 L 98.500046 -51.507964 L 98.155025 -51.710203 L 97.810004 -52.060214 L 97.464984 -52.560681 L 97.119963 -53.159187 L 96.774942 -53.754832 L 96.429921 -54.211006 L 96.0849 -54.376196 L 95.73988 -54.113639 L 95.394859 -53.336213 L 95.049838 -52.037895 L 94.704817 -50.311449 L 94.359797 -48.345684 L 94.014776 -46.403188 L 93.669755 -44.786604 L 93.324734 -43.804327 L 92.979713 -43.743467 L 92.634693 -44.851277 L 92.289672 -47.319992 L 91.944651 -51.267874 L 91.59963 -56.712553 L 91.25461 -63.540292 L 90.909589 -71.483398 L 90.564568 -80.123371 L 90.219547 -88.935467 L 89.874526 -97.378433 L 89.529506 -105.013057 L 89.184485 -111.612612 L 88.839464 -117.219778 L 88.494443 -122.118554 L 88.149423 -126.725607 L 87.804402 -131.447347 L 87.459381 -136.571791 L 87.11436 -142.248746 L 86.769339 -148.560419 L 86.424319 -155.624005 L 86.079298 -163.63604 L 85.734277 -172.790486 L 85.389256 -183.073454 L 85.044236 -194.020744 L 84.699215 -204.571879 L 84.354194 -213.13383 L 84.009173 -217.883342 L 83.664152 -217.228544 L 83.319132 -210.272569 L 82.974111 -197.112941 L 82.62909 -178.872868 L 82.284069 -157.46169 L 81.939049 -135.153804 L 81.594028 -114.121843 L 81.249007 -96.051019 L 80.903986 -81.913514 L 80.558965 -71.92262 L 80.213945 -65.639408 L 79.868924 -62.179838 L 79.523903 -60.464465 L 79.178882 -59.457845 L 78.833862 -58.354666 L 78.488841 -56.683434 L 78.14382 -54.317482 L 77.798799 -51.405427 L 77.453778 -48.252887 L 77.108758 -45.196547 L 76.763737 -42.506582 L 76.418716 -40.336873 L 76.073695 -38.72251 L 75.728675 -37.609409 L 75.383654 -36.895846 L 75.038633 -36.469518 L 74.693612 -36.231694 z"/></defs><g clip-path="url(#pff203f4f37)"><use x="0" y="288" xlink:href="#m4816734ecb" style="fill:#91db57;fill-opacity:.5"/></g></g><g id="PolyCollection_4"><defs><path id="mba079ee8b7" d="M 75.62861 -36.300755 L 75.62861 -36 L 75.906215 -36 L 76.183821 -36 L 76.461427 -36 L 76.739033 -36 L 77.016639 -36 L 77.294244 -36 L 77.57185 -36 L 77.849456 -36 L 78.127062 -36 L 78.404667 -36 L 78.682273 -36 L 78.959879 -36 L 79.237485 -36 L 79.51509 -36 L 79.792696 -36 L 80.070302 -36 L 80.347908 -36 L 80.625514 -36 L 80.903119 -36 L 81.180725 -36 L 81.458331 -36 L 81.735937 -36 L 82.013542 -36 L 82.291148 -36 L 82.568754 -36 L 82.84636 -36 L 83.123966 -36 L 83.401571 -36 L 83.679177 -36 L 83.956783 -36 L 84.234389 -36 L 84.511994 -36 L 84.7896 -36 L 85.067206 -36 L 85.344812 -36 L 85.622417 -36 L 85.900023 -36 L 86.177629 -36 L 86.455235 -36 L 86.732841 -36 L 87.010446 -36 L 87.288052 -36 L 87.565658 -36 L 87.843264 -36 L 88.120869 -36 L 88.398475 -36 L 88.676081 -36 L 88.953687 -36 L 89.231293 -36 L 89.508898 -36 L 89.786504 -36 L 90.06411 -36 L 90.341716 -36 L 90.619321 -36 L 90.896927 -36 L 91.174533 -36 L 91.452139 -36 L 91.729744 -36 L 92.00735 -36 L 92.284956 -36 L 92.562562 -36 L 92.840168 -36 L 93.117773 -36 L 93.395379 -36 L 93.672985 -36 L 93.950591 -36 L 94.228196 -36 L 94.505802 -36 L 94.783408 -36 L 95.061014 -36 L 95.33862 -36 L 95.616225 -36 L 95.893831 -36 L 96.171437 -36 L 96.449043 -36 L 96.726648 -36 L 97.004254 -36 L 97.28186 -36 L 97.559466 -36 L 97.837071 -36 L 98.114677 -36 L 98.392283 -36 L 98.669889 -36 L 98.947495 -36 L 99.2251 -36 L 99.502706 -36 L 99.780312 -36 L 100.057918 -36 L 100.335523 -36 L 100.613129 -36 L 100.890735 -36 L 101.168341 -36 L 101.445947 -36 L 101.723552 -36 L 102.001158 -36 L 102.278764 -36 L 102.55637 -36 L 102.833975 -36 L 103.111581 -36 L 103.389187 -36 L 103.666793 -36 L 103.944398 -36 L 104.222004 -36 L 104.49961 -36 L 104.777216 -36 L 105.054822 -36 L 105.332427 -36 L 105.610033 -36 L 105.887639 -36 L 106.165245 -36 L 106.44285 -36 L 106.720456 -36 L 106.998062 -36 L 107.275668 -36 L 107.553274 -36 L 107.830879 -36 L 108.108485 -36 L 108.386091 -36 L 108.663697 -36 L 108.941302 -36 L 109.218908 -36 L 109.496514 -36 L 109.77412 -36 L 110.051725 -36 L 110.329331 -36 L 110.606937 -36 L 110.884543 -36 L 111.162149 -36 L 111.439754 -36 L 111.71736 -36 L 111.994966 -36 L 112.272572 -36 L 112.550177 -36 L 112.827783 -36 L 113.105389 -36 L 113.382995 -36 L 113.660601 -36 L 113.938206 -36 L 114.215812 -36 L 114.493418 -36 L 114.771024 -36 L 115.048629 -36 L 115.326235 -36 L 115.603841 -36 L 115.881447 -36 L 116.159052 -36 L 116.436658 -36 L 116.714264 -36 L 116.99187 -36 L 117.269476 -36 L 117.547081 -36 L 117.824687 -36 L 118.102293 -36 L 118.379899 -36 L 118.657504 -36 L 118.93511 -36 L 119.212716 -36 L 119.490322 -36 L 119.767927 -36 L 120.045533 -36 L 120.323139 -36 L 120.600745 -36 L 120.878351 -36 L 121.155956 -36 L 121.433562 -36 L 121.711168 -36 L 121.988774 -36 L 122.266379 -36 L 122.543985 -36 L 122.821591 -36 L 123.099197 -36 L 123.376803 -36 L 123.654408 -36 L 123.932014 -36 L 124.20962 -36 L 124.487226 -36 L 124.764831 -36 L 125.042437 -36 L 125.320043 -36 L 125.597649 -36 L 125.875254 -36 L 126.15286 -36 L 126.430466 -36 L 126.708072 -36 L 126.985678 -36 L 127.263283 -36 L 127.540889 -36 L 127.818495 -36 L 128.096101 -36 L 128.373706 -36 L 128.651312 -36 L 128.928918 -36 L 129.206524 -36 L 129.48413 -36 L 129.761735 -36 L 130.039341 -36 L 130.316947 -36 L 130.594553 -36 L 130.872158 -36 L 130.872158 -36.40691 L 130.872158 -36.40691 L 130.594553 -36.843619 L 130.316947 -37.639934 L 130.039341 -38.989085 L 129.761735 -41.108367 L 129.48413 -44.185736 L 129.206524 -48.29887 L 128.928918 -53.326249 L 128.651312 -58.886306 L 128.373706 -64.345146 L 128.096101 -68.916491 L 127.818495 -71.841007 L 127.540889 -72.591373 L 127.263283 -71.027493 L 126.985678 -67.439182 L 126.708072 -62.458503 L 126.430466 -56.878107 L 126.15286 -51.447166 L 125.875254 -46.71614 L 125.597649 -42.970433 L 125.320043 -40.251214 L 125.042437 -38.431073 L 124.764831 -37.303512 L 124.487226 -36.655335 L 124.20962 -36.308919 L 123.932014 -36.136539 L 123.654408 -36.056585 L 123.376803 -36.021988 L 123.099197 -36.008011 L 122.821591 -36.002737 L 122.543985 -36.000877 L 122.266379 -36.000263 L 121.988774 -36.000074 L 121.711168 -36.00002 L 121.433562 -36.000005 L 121.155956 -36.000001 L 120.878351 -36 L 120.600745 -36 L 120.323139 -36 L 120.045533 -36 L 119.767927 -36 L 119.490322 -36 L 119.212716 -36 L 118.93511 -36 L 118.657504 -36 L 118.379899 -36 L 118.102293 -36 L 117.824687 -36.000001 L 117.547081 -36.000004 L 117.269476 -36.000016 L 116.99187 -36.00006 L 116.714264 -36.000216 L 116.436658 -36.000728 L 116.159052 -36.002307 L 115.881447 -36.006851 L 115.603841 -36.019079 L 115.326235 -36.049826 L 115.048629 -36.122033 L 114.771024 -36.280294 L 114.493418 -36.603783 L 114.215812 -37.219806 L 113.938206 -38.311315 L 113.660601 -40.107738 L 113.382995 -42.847638 L 113.105389 -46.707669 L 112.827783 -51.706864 L 112.550177 -57.614828 L 112.272572 -63.906956 L 111.994966 -69.806931 L 111.71736 -74.429945 L 111.439754 -76.996512 L 111.162149 -77.047256 L 110.884543 -74.577419 L 110.606937 -70.036968 L 110.329331 -64.196765 L 110.051725 -57.935413 L 109.77412 -52.027404 L 109.496514 -47.000926 L 109.218908 -43.09458 L 108.941302 -40.299742 L 108.663697 -38.44944 L 108.386091 -37.311876 L 108.108485 -36.660715 L 107.830879 -36.312986 L 107.553274 -36.139482 L 107.275668 -36.05849 L 106.998062 -36.023083 L 106.720456 -36.008575 L 106.44285 -36.002999 L 106.165245 -36.000987 L 105.887639 -36.000306 L 105.610033 -36.000089 L 105.332427 -36.000025 L 105.054822 -36.000006 L 104.777216 -36.000002 L 104.49961 -36 L 104.222004 -36 L 103.944398 -36 L 103.666793 -36 L 103.389187 -36 L 103.111581 -36 L 102.833975 -36 L 102.55637 -36 L 102.278764 -36 L 102.001158 -36 L 101.723552 -36 L 101.445947 -36 L 101.168341 -36 L 100.890735 -36 L 100.613129 -36 L 100.335523 -36 L 100.057918 -36 L 99.780312 -36 L 99.502706 -36 L 99.2251 -36 L 98.947495 -36 L 98.669889 -36 L 98.392283 -36 L 98.114677 -36 L 97.837071 -36 L 97.559466 -36 L 97.28186 -36 L 97.004254 -36 L 96.726648 -36 L 96.449043 -36 L 96.171437 -36 L 95.893831 -36 L 95.616225 -36 L 95.33862 -36.000001 L 95.061014 -36.000006 L 94.783408 -36.000024 L 94.505802 -36.000089 L 94.228196 -36.000313 L 93.950591 -36.001036 L 93.672985 -36.00321 L 93.395379 -36.009333 L 93.117773 -36.025449 L 92.840168 -36.065094 L 92.562562 -36.156185 L 92.284956 -36.351567 L 92.00735 -36.742488 L 91.729744 -37.471479 L 91.452139 -38.737177 L 91.174533 -40.780667 L 90.896927 -43.844155 L 90.619321 -48.101623 L 90.341716 -53.577582 L 90.06411 -60.088128 L 89.786504 -67.246144 L 89.508898 -74.558034 L 89.231293 -81.600423 L 88.953687 -88.216495 L 88.676081 -94.64033 L 88.398475 -101.469228 L 88.120869 -109.462783 L 87.843264 -119.228833 L 87.565658 -130.918198 L 87.288052 -144.057805 L 87.010446 -157.600526 L 86.732841 -170.186394 L 86.455235 -180.53341 L 86.177629 -187.835051 L 85.900023 -192.041471 L 85.622417 -193.932735 L 85.344812 -194.944613 L 85.067206 -196.773395 L 84.7896 -200.855609 L 84.511994 -207.870748 L 84.234389 -217.425514 L 83.956783 -228.034153 L 83.679177 -237.422696 L 83.401571 -243.085714 L 83.123966 -242.945584 L 82.84636 -235.928565 L 82.568754 -222.28843 L 82.291148 -203.575335 L 82.013542 -182.251733 L 81.735937 -161.069376 L 81.458331 -142.401121 L 81.180725 -127.732818 L 80.903119 -117.455047 L 80.625514 -110.979164 L 80.347908 -107.088363 L 80.070302 -104.370895 L 79.792696 -101.589405 L 79.51509 -97.901424 L 79.237485 -92.921861 L 78.959879 -86.671134 L 78.682273 -79.466433 L 78.404667 -71.798476 L 78.127062 -64.214272 L 77.849456 -57.214588 L 77.57185 -51.174643 L 77.294244 -46.298912 L 77.016639 -42.617007 L 76.739033 -40.016848 L 76.461427 -38.30019 L 76.183821 -37.24088 L 75.906215 -36.629987 L 75.62861 -36.300755 z"/></defs><g clip-path="url(#pff203f4f37)"><use x="0" y="288" xlink:href="#mba079ee8b7" style="fill:#db5f57;fill-opacity:.5"/></g></g><g id="matplotlib.axis_1"><g id="xtick_1"><g id="line2d_1"><defs><path id="mf1c6c56873" d="M 0 0 L 0 3.5" style="stroke:#000;stroke-width:.8"/></defs><g><use x="77.921" y="252" xlink:href="#mf1c6c56873" style="stroke:#000;stroke-width:.8"/></g></g><g id="text_1"><g transform="translate(74.739521 266.598437)scale(0.1 -0.1)"><defs><path id="DejaVuSans-30" d="M 2034 4250 Q 1547 4250 1301 3770 Q 1056 3291 1056 2328 Q 1056 1369 1301 889 Q 1547 409 2034 409 Q 2525 409 2770 889 Q 3016 1369 3016 2328 Q 3016 3291 2770 3770 Q 2525 4250 2034 4250 z M 2034 4750 Q 2819 4750 3233 4129 Q 3647 3509 3647 2328 Q 3647 1150 3233 529 Q 2819 -91 2034 -91 Q 1250 -91 836 529 Q 422 1150 422 2328 Q 422 3509 836 4129 Q 1250 4750 2034 4750 z" transform="scale(0.015625)"/></defs><use xlink:href="#DejaVuSans-30"/></g></g></g><g id="xtick_2"><g id="line2d_2"><g><use x="125.046" y="252" xlink:href="#mf1c6c56873" style="stroke:#000;stroke-width:.8"/></g></g><g id="text_2"><g transform="translate(112.320632 266.598437)scale(0.1 -0.1)"><defs><path id="DejaVuSans-31" d="M 794 531 L 1825 531 L 1825 4091 L 703 3866 L 703 4441 L 1819 4666 L 2450 4666 L 2450 531 L 3481 531 L 3481 0 L 794 0 L 794 531 z" transform="scale(0.015625)"/></defs><use xlink:href="#DejaVuSans-31"/><use x="63.623" xlink:href="#DejaVuSans-30"/><use x="127.246" xlink:href="#DejaVuSans-30"/><use x="190.869" xlink:href="#DejaVuSans-30"/></g></g></g><g id="xtick_3"><g id="line2d_3"><g><use x="172.17" y="252" xlink:href="#mf1c6c56873" style="stroke:#000;stroke-width:.8"/></g></g><g id="text_3"><g transform="translate(159.445493 266.598437)scale(0.1 -0.1)"><defs><path id="DejaVuSans-32" d="M 1228 531 L 3431 531 L 3431 0 L 469 0 L 469 531 Q 828 903 1448 1529 Q 2069 2156 2228 2338 Q 2531 2678 2651 2914 Q 2772 3150 2772 3378 Q 2772 3750 2511 3984 Q 2250 4219 1831 4219 Q 1534 4219 1204 4116 Q 875 4013 500 3803 L 500 4441 Q 881 4594 1212 4672 Q 1544 4750 1819 4750 Q 2544 4750 2975 4387 Q 3406 4025 3406 3419 Q 3406 3131 3298 2873 Q 3191 2616 2906 2266 Q 2828 2175 2409 1742 Q 1991 1309 1228 531 z" transform="scale(0.015625)"/></defs><use xlink:href="#DejaVuSans-32"/><use x="63.623" xlink:href="#DejaVuSans-30"/><use x="127.246" xlink:href="#DejaVuSans-30"/><use x="190.869" xlink:href="#DejaVuSans-30"/></g></g></g><g id="xtick_4"><g id="line2d_4"><g><use x="219.295" y="252" xlink:href="#mf1c6c56873" style="stroke:#000;stroke-width:.8"/></g></g><g id="text_4"><g transform="translate(206.570355 266.598437)scale(0.1 -0.1)"><defs><path id="DejaVuSans-33" d="M 2597 2516 Q 3050 2419 3304 2112 Q 3559 1806 3559 1356 Q 3559 666 3084 287 Q 2609 -91 1734 -91 Q 1441 -91 1130 -33 Q 819 25 488 141 L 488 750 Q 750 597 1062 519 Q 1375 441 1716 441 Q 2309 441 2620 675 Q 2931 909 2931 1356 Q 2931 1769 2642 2001 Q 2353 2234 1838 2234 L 1294 2234 L 1294 2753 L 1863 2753 Q 2328 2753 2575 2939 Q 2822 3125 2822 3475 Q 2822 3834 2567 4026 Q 2313 4219 1838 4219 Q 1578 4219 1281 4162 Q 984 4106 628 3988 L 628 4550 Q 988 4650 1302 4700 Q 1616 4750 1894 4750 Q 2613 4750 3031 4423 Q 3450 4097 3450 3541 Q 3450 3153 3228 2886 Q 3006 2619 2597 2516 z" transform="scale(0.015625)"/></defs><use xlink:href="#DejaVuSans-33"/><use x="63.623" xlink:href="#DejaVuSans-30"/><use x="127.246" xlink:href="#DejaVuSans-30"/><use x="190.869" xlink:href="#DejaVuSans-30"/></g></g></g><g id="xtick_5"><g id="line2d_5"><g><use x="266.42" y="252" xlink:href="#mf1c6c56873" style="stroke:#000;stroke-width:.8"/></g></g><g id="text_5"><g transform="translate(253.695216 266.598437)scale(0.1 -0.1)"><defs><path id="DejaVuSans-34" d="M 2419 4116 L 825 1625 L 2419 1625 L 2419 4116 z M 2253 4666 L 3047 4666 L 3047 1625 L 3713 1625 L 3713 1100 L 3047 1100 L 3047 0 L 2419 0 L 2419 1100 L 313 1100 L 313 1709 L 2253 4666 z" transform="scale(0.015625)"/></defs><use xlink:href="#DejaVuSans-34"/><use x="63.623" xlink:href="#DejaVuSans-30"/><use x="127.246" xlink:href="#DejaVuSans-30"/><use x="190.869" xlink:href="#DejaVuSans-30"/></g></g></g><g id="xtick_6"><g id="line2d_6"><g><use x="313.545" y="252" xlink:href="#mf1c6c56873" style="stroke:#000;stroke-width:.8"/></g></g><g id="text_6"><g transform="translate(300.820077 266.598437)scale(0.1 -0.1)"><defs><path id="DejaVuSans-35" d="M 691 4666 L 3169 4666 L 3169 4134 L 1269 4134 L 1269 2991 Q 1406 3038 1543 3061 Q 1681 3084 1819 3084 Q 2600 3084 3056 2656 Q 3513 2228 3513 1497 Q 3513 744 3044 326 Q 2575 -91 1722 -91 Q 1428 -91 1123 -41 Q 819 9 494 109 L 494 744 Q 775 591 1075 516 Q 1375 441 1709 441 Q 2250 441 2565 725 Q 2881 1009 2881 1497 Q 2881 1984 2565 2268 Q 2250 2553 1709 2553 Q 1456 2553 1204 2497 Q 953 2441 691 2322 L 691 4666 z" transform="scale(0.015625)"/></defs><use xlink:href="#DejaVuSans-35"/><use x="63.623" xlink:href="#DejaVuSans-30"/><use x="127.246" xlink:href="#DejaVuSans-30"/><use x="190.869" xlink:href="#DejaVuSans-30"/></g></g></g><g id="xtick_7"><g id="line2d_7"><g><use x="360.67" y="252" xlink:href="#mf1c6c56873" style="stroke:#000;stroke-width:.8"/></g></g><g id="text_7"><g transform="translate(347.944938 266.598437)scale(0.1 -0.1)"><defs><path id="DejaVuSans-36" d="M 2113 2584 Q 1688 2584 1439 2293 Q 1191 2003 1191 1497 Q 1191 994 1439 701 Q 1688 409 2113 409 Q 2538 409 2786 701 Q 3034 994 3034 1497 Q 3034 2003 2786 2293 Q 2538 2584 2113 2584 z M 3366 4563 L 3366 3988 Q 3128 4100 2886 4159 Q 2644 4219 2406 4219 Q 1781 4219 1451 3797 Q 1122 3375 1075 2522 Q 1259 2794 1537 2939 Q 1816 3084 2150 3084 Q 2853 3084 3261 2657 Q 3669 2231 3669 1497 Q 3669 778 3244 343 Q 2819 -91 2113 -91 Q 1303 -91 875 529 Q 447 1150 447 2328 Q 447 3434 972 4092 Q 1497 4750 2381 4750 Q 2619 4750 2861 4703 Q 3103 4656 3366 4563 z" transform="scale(0.015625)"/></defs><use xlink:href="#DejaVuSans-36"/><use x="63.623" xlink:href="#DejaVuSans-30"/><use x="127.246" xlink:href="#DejaVuSans-30"/><use x="190.869" xlink:href="#DejaVuSans-30"/></g></g></g><g id="text_8"><g transform="translate(191.805469 280.276563)scale(0.1 -0.1)"><defs><path id="DejaVuSans-54" d="M -19 4666 L 3928 4666 L 3928 4134 L 2272 4134 L 2272 0 L 1638 0 L 1638 4134 L -19 4134 L -19 4666 z" transform="scale(0.015625)"/><path id="DejaVuSans-72" d="M 2631 2963 Q 2534 3019 2420 3045 Q 2306 3072 2169 3072 Q 1681 3072 1420 2755 Q 1159 2438 1159 1844 L 1159 0 L 581 0 L 581 3500 L 1159 3500 L 1159 2956 Q 1341 3275 1631 3429 Q 1922 3584 2338 3584 Q 2397 3584 2469 3576 Q 2541 3569 2628 3553 L 2631 2963 z" transform="scale(0.015625)"/><path id="DejaVuSans-61" d="M 2194 1759 Q 1497 1759 1228 1600 Q 959 1441 959 1056 Q 959 750 1161 570 Q 1363 391 1709 391 Q 2188 391 2477 730 Q 2766 1069 2766 1631 L 2766 1759 L 2194 1759 z M 3341 1997 L 3341 0 L 2766 0 L 2766 531 Q 2569 213 2275 61 Q 1981 -91 1556 -91 Q 1019 -91 701 211 Q 384 513 384 1019 Q 384 1609 779 1909 Q 1175 2209 1959 2209 L 2766 2209 L 2766 2266 Q 2766 2663 2505 2880 Q 2244 3097 1772 3097 Q 1472 3097 1187 3025 Q 903 2953 641 2809 L 641 3341 Q 956 3463 1253 3523 Q 1550 3584 1831 3584 Q 2591 3584 2966 3190 Q 3341 2797 3341 1997 z" transform="scale(0.015625)"/><path id="DejaVuSans-76" d="M 191 3500 L 800 3500 L 1894 563 L 2988 3500 L 3597 3500 L 2284 0 L 1503 0 L 191 3500 z" transform="scale(0.015625)"/><path id="DejaVuSans-65" d="M 3597 1894 L 3597 1613 L 953 1613 Q 991 1019 1311 708 Q 1631 397 2203 397 Q 2534 397 2845 478 Q 3156 559 3463 722 L 3463 178 Q 3153 47 2828 -22 Q 2503 -91 2169 -91 Q 1331 -91 842 396 Q 353 884 353 1716 Q 353 2575 817 3079 Q 1281 3584 2069 3584 Q 2775 3584 3186 3129 Q 3597 2675 3597 1894 z M 3022 2063 Q 3016 2534 2758 2815 Q 2500 3097 2075 3097 Q 1594 3097 1305 2825 Q 1016 2553 972 2059 L 3022 2063 z" transform="scale(0.015625)"/><path id="DejaVuSans-6c" d="M 603 4863 L 1178 4863 L 1178 0 L 603 0 L 603 4863 z" transform="scale(0.015625)"/><path id="DejaVuSans-5f" d="M 3263 -1063 L 3263 -1509 L -63 -1509 L -63 -1063 L 3263 -1063 z" transform="scale(0.015625)"/><path id="DejaVuSans-69" d="M 603 3500 L 1178 3500 L 1178 0 L 603 0 L 603 3500 z M 603 4863 L 1178 4863 L 1178 4134 L 603 4134 L 603 4863 z" transform="scale(0.015625)"/><path id="DejaVuSans-6d" d="M 3328 2828 Q 3544 3216 3844 3400 Q 4144 3584 4550 3584 Q 5097 3584 5394 3201 Q 5691 2819 5691 2113 L 5691 0 L 5113 0 L 5113 2094 Q 5113 2597 4934 2840 Q 4756 3084 4391 3084 Q 3944 3084 3684 2787 Q 3425 2491 3425 1978 L 3425 0 L 2847 0 L 2847 2094 Q 2847 2600 2669 2842 Q 2491 3084 2119 3084 Q 1678 3084 1418 2786 Q 1159 2488 1159 1978 L 1159 0 L 581 0 L 581 3500 L 1159 3500 L 1159 2956 Q 1356 3278 1631 3431 Q 1906 3584 2284 3584 Q 2666 3584 2933 3390 Q 3200 3197 3328 2828 z" transform="scale(0.015625)"/></defs><use xlink:href="#DejaVuSans-54"/><use x="46.334" xlink:href="#DejaVuSans-72"/><use x="87.447" xlink:href="#DejaVuSans-61"/><use x="148.727" xlink:href="#DejaVuSans-76"/><use x="207.906" xlink:href="#DejaVuSans-65"/><use x="269.43" xlink:href="#DejaVuSans-6c"/><use x="297.213" xlink:href="#DejaVuSans-5f"/><use x="347.213" xlink:href="#DejaVuSans-54"/><use x="405.172" xlink:href="#DejaVuSans-69"/><use x="432.955" xlink:href="#DejaVuSans-6d"/><use x="530.367" xlink:href="#DejaVuSans-65"/></g></g></g><g id="matplotlib.axis_2"><g id="ytick_1"><g id="line2d_8"><defs><path id="mc7f3860827" d="M 0 0 L -3.5 0" style="stroke:#000;stroke-width:.8"/></defs><g><use x="54" y="252" xlink:href="#mc7f3860827" style="stroke:#000;stroke-width:.8"/></g></g><g id="text_9"><g transform="translate(18.371875 255.799219)scale(0.1 -0.1)"><defs><path id="DejaVuSans-2e" d="M 684 794 L 1344 794 L 1344 0 L 684 0 L 684 794 z" transform="scale(0.015625)"/></defs><use xlink:href="#DejaVuSans-30"/><use x="63.623" xlink:href="#DejaVuSans-2e"/><use x="95.41" xlink:href="#DejaVuSans-30"/><use x="159.033" xlink:href="#DejaVuSans-30"/><use x="222.656" xlink:href="#DejaVuSans-30"/></g></g></g><g id="ytick_2"><g id="line2d_9"><g><use x="54" y="218.232" xlink:href="#mc7f3860827" style="stroke:#000;stroke-width:.8"/></g></g><g id="text_10"><g transform="translate(18.371875 222.031083)scale(0.1 -0.1)"><use xlink:href="#DejaVuSans-30"/><use x="63.623" xlink:href="#DejaVuSans-2e"/><use x="95.41" xlink:href="#DejaVuSans-30"/><use x="159.033" xlink:href="#DejaVuSans-30"/><use x="222.656" xlink:href="#DejaVuSans-31"/></g></g></g><g id="ytick_3"><g id="line2d_10"><g><use x="54" y="184.464" xlink:href="#mc7f3860827" style="stroke:#000;stroke-width:.8"/></g></g><g id="text_11"><g transform="translate(18.371875 188.262948)scale(0.1 -0.1)"><use xlink:href="#DejaVuSans-30"/><use x="63.623" xlink:href="#DejaVuSans-2e"/><use x="95.41" xlink:href="#DejaVuSans-30"/><use x="159.033" xlink:href="#DejaVuSans-30"/><use x="222.656" xlink:href="#DejaVuSans-32"/></g></g></g><g id="ytick_4"><g id="line2d_11"><g><use x="54" y="150.696" xlink:href="#mc7f3860827" style="stroke:#000;stroke-width:.8"/></g></g><g id="text_12"><g transform="translate(18.371875 154.494812)scale(0.1 -0.1)"><use xlink:href="#DejaVuSans-30"/><use x="63.623" xlink:href="#DejaVuSans-2e"/><use x="95.41" xlink:href="#DejaVuSans-30"/><use x="159.033" xlink:href="#DejaVuSans-30"/><use x="222.656" xlink:href="#DejaVuSans-33"/></g></g></g><g id="ytick_5"><g id="line2d_12"><g><use x="54" y="116.927" xlink:href="#mc7f3860827" style="stroke:#000;stroke-width:.8"/></g></g><g id="text_13"><g transform="translate(18.371875 120.726677)scale(0.1 -0.1)"><use xlink:href="#DejaVuSans-30"/><use x="63.623" xlink:href="#DejaVuSans-2e"/><use x="95.41" xlink:href="#DejaVuSans-30"/><use x="159.033" xlink:href="#DejaVuSans-30"/><use x="222.656" xlink:href="#DejaVuSans-34"/></g></g></g><g id="ytick_6"><g id="line2d_13"><g><use x="54" y="83.159" xlink:href="#mc7f3860827" style="stroke:#000;stroke-width:.8"/></g></g><g id="text_14"><g transform="translate(18.371875 86.958542)scale(0.1 -0.1)"><use xlink:href="#DejaVuSans-30"/><use x="63.623" xlink:href="#DejaVuSans-2e"/><use x="95.41" xlink:href="#DejaVuSans-30"/><use x="159.033" xlink:href="#DejaVuSans-30"/><use x="222.656" xlink:href="#DejaVuSans-35"/></g></g></g><g id="ytick_7"><g id="line2d_14"><g><use x="54" y="49.391" xlink:href="#mc7f3860827" style="stroke:#000;stroke-width:.8"/></g></g><g id="text_15"><g transform="translate(18.371875 53.190406)scale(0.1 -0.1)"><use xlink:href="#DejaVuSans-30"/><use x="63.623" xlink:href="#DejaVuSans-2e"/><use x="95.41" xlink:href="#DejaVuSans-30"/><use x="159.033" xlink:href="#DejaVuSans-30"/><use x="222.656" xlink:href="#DejaVuSans-36"/></g></g></g><g id="text_16"><g transform="translate(12.292187 162.288594)rotate(-90)scale(0.1 -0.1)"><defs><path id="DejaVuSans-44" d="M 1259 4147 L 1259 519 L 2022 519 Q 2988 519 3436 956 Q 3884 1394 3884 2338 Q 3884 3275 3436 3711 Q 2988 4147 2022 4147 L 1259 4147 z M 628 4666 L 1925 4666 Q 3281 4666 3915 4102 Q 4550 3538 4550 2338 Q 4550 1131 3912 565 Q 3275 0 1925 0 L 628 0 L 628 4666 z" transform="scale(0.015625)"/><path id="DejaVuSans-6e" d="M 3513 2113 L 3513 0 L 2938 0 L 2938 2094 Q 2938 2591 2744 2837 Q 2550 3084 2163 3084 Q 1697 3084 1428 2787 Q 1159 2491 1159 1978 L 1159 0 L 581 0 L 581 3500 L 1159 3500 L 1159 2956 Q 1366 3272 1645 3428 Q 1925 3584 2291 3584 Q 2894 3584 3203 3211 Q 3513 2838 3513 2113 z" transform="scale(0.015625)"/><path id="DejaVuSans-73" d="M 2834 3397 L 2834 2853 Q 2591 2978 2328 3040 Q 2066 3103 1784 3103 Q 1356 3103 1142 2972 Q 928 2841 928 2578 Q 928 2378 1081 2264 Q 1234 2150 1697 2047 L 1894 2003 Q 2506 1872 2764 1633 Q 3022 1394 3022 966 Q 3022 478 2636 193 Q 2250 -91 1575 -91 Q 1294 -91 989 -36 Q 684 19 347 128 L 347 722 Q 666 556 975 473 Q 1284 391 1588 391 Q 1994 391 2212 530 Q 2431 669 2431 922 Q 2431 1156 2273 1281 Q 2116 1406 1581 1522 L 1381 1569 Q 847 1681 609 1914 Q 372 2147 372 2553 Q 372 3047 722 3315 Q 1072 3584 1716 3584 Q 2034 3584 2315 3537 Q 2597 3491 2834 3397 z" transform="scale(0.015625)"/><path id="DejaVuSans-74" d="M 1172 4494 L 1172 3500 L 2356 3500 L 2356 3053 L 1172 3053 L 1172 1153 Q 1172 725 1289 603 Q 1406 481 1766 481 L 2356 481 L 2356 0 L 1766 0 Q 1100 0 847 248 Q 594 497 594 1153 L 594 3053 L 172 3053 L 172 3500 L 594 3500 L 594 4494 L 1172 4494 z" transform="scale(0.015625)"/><path id="DejaVuSans-79" d="M 2059 -325 Q 1816 -950 1584 -1140 Q 1353 -1331 966 -1331 L 506 -1331 L 506 -850 L 844 -850 Q 1081 -850 1212 -737 Q 1344 -625 1503 -206 L 1606 56 L 191 3500 L 800 3500 L 1894 763 L 2988 3500 L 3597 3500 L 2059 -325 z" transform="scale(0.015625)"/></defs><use xlink:href="#DejaVuSans-44"/><use x="77.002" xlink:href="#DejaVuSans-65"/><use x="138.525" xlink:href="#DejaVuSans-6e"/><use x="201.904" xlink:href="#DejaVuSans-73"/><use x="254.004" xlink:href="#DejaVuSans-69"/><use x="281.787" xlink:href="#DejaVuSans-74"/><use x="320.996" xlink:href="#DejaVuSans-79"/></g></g></g><g id="patch_3"><path d="M 54 252 L 54 34.56" style="fill:none;stroke:#000;stroke-width:.8;stroke-linejoin:miter;stroke-linecap:square"/></g><g id="patch_4"><path d="M 388.8 252 L 388.8 34.56" style="fill:none;stroke:#000;stroke-width:.8;stroke-linejoin:miter;stroke-linecap:square"/></g><g id="patch_5"><path d="M 54 252 L 388.8 252" style="fill:none;stroke:#000;stroke-width:.8;stroke-linejoin:miter;stroke-linecap:square"/></g><g id="patch_6"><path d="M 54 34.56 L 388.8 34.56" style="fill:none;stroke:#000;stroke-width:.8;stroke-linejoin:miter;stroke-linecap:square"/></g><g id="legend_1"><g id="patch_7"><path d="M 334.326563 115.950625 L 381.8 115.950625 Q 383.8 115.950625 383.8 113.950625 L 383.8 41.56 Q 383.8 39.56 381.8 39.56 L 334.326563 39.56 Q 332.326563 39.56 332.326563 41.56 L 332.326563 113.950625 Q 332.326563 115.950625 334.326563 115.950625 z" style="fill:#fff;opacity:.8;stroke:#ccc;stroke-linejoin:miter"/></g><g id="text_17"><g transform="translate(336.326563 51.158437)scale(0.1 -0.1)"><defs><path id="DejaVuSans-53" d="M 3425 4513 L 3425 3897 Q 3066 4069 2747 4153 Q 2428 4238 2131 4238 Q 1616 4238 1336 4038 Q 1056 3838 1056 3469 Q 1056 3159 1242 3001 Q 1428 2844 1947 2747 L 2328 2669 Q 3034 2534 3370 2195 Q 3706 1856 3706 1288 Q 3706 609 3251 259 Q 2797 -91 1919 -91 Q 1588 -91 1214 -16 Q 841 59 441 206 L 441 856 Q 825 641 1194 531 Q 1563 422 1919 422 Q 2459 422 2753 634 Q 3047 847 3047 1241 Q 3047 1584 2836 1778 Q 2625 1972 2144 2069 L 1759 2144 Q 1053 2284 737 2584 Q 422 2884 422 3419 Q 422 4038 858 4394 Q 1294 4750 2059 4750 Q 2388 4750 2728 4690 Q 3069 4631 3425 4513 z" transform="scale(0.015625)"/><path id="DejaVuSans-63" d="M 3122 3366 L 3122 2828 Q 2878 2963 2633 3030 Q 2388 3097 2138 3097 Q 1578 3097 1268 2742 Q 959 2388 959 1747 Q 959 1106 1268 751 Q 1578 397 2138 397 Q 2388 397 2633 464 Q 2878 531 3122 666 L 3122 134 Q 2881 22 2623 -34 Q 2366 -91 2075 -91 Q 1284 -91 818 406 Q 353 903 353 1747 Q 353 2603 823 3093 Q 1294 3584 2113 3584 Q 2378 3584 2631 3529 Q 2884 3475 3122 3366 z" transform="scale(0.015625)"/><path id="DejaVuSans-6f" d="M 1959 3097 Q 1497 3097 1228 2736 Q 959 2375 959 1747 Q 959 1119 1226 758 Q 1494 397 1959 397 Q 2419 397 2687 759 Q 2956 1122 2956 1747 Q 2956 2369 2687 2733 Q 2419 3097 1959 3097 z M 1959 3584 Q 2709 3584 3137 3096 Q 3566 2609 3566 1747 Q 3566 888 3137 398 Q 2709 -91 1959 -91 Q 1206 -91 779 398 Q 353 888 353 1747 Q 353 2609 779 3096 Q 1206 3584 1959 3584 z" transform="scale(0.015625)"/></defs><use xlink:href="#DejaVuSans-53"/><use x="63.477" xlink:href="#DejaVuSans-63"/><use x="118.457" xlink:href="#DejaVuSans-65"/><use x="179.98" xlink:href="#DejaVuSans-6e"/><use x="243.359" xlink:href="#DejaVuSans-61"/><use x="304.639" xlink:href="#DejaVuSans-72"/><use x="345.752" xlink:href="#DejaVuSans-69"/><use x="373.535" xlink:href="#DejaVuSans-6f"/></g></g><g id="patch_8"><path d="M 340.213281 65.836562 L 360.213281 65.836562 L 360.213281 58.836562 L 340.213281 58.836562 z" style="fill:#db5f57;fill-opacity:.5"/></g><g id="text_18"><g transform="translate(368.213281 65.836562)scale(0.1 -0.1)"><defs><path id="DejaVuSans-41" d="M 2188 4044 L 1331 1722 L 3047 1722 L 2188 4044 z M 1831 4666 L 2547 4666 L 4325 0 L 3669 0 L 3244 1197 L 1141 1197 L 716 0 L 50 0 L 1831 4666 z" transform="scale(0.015625)"/></defs><use xlink:href="#DejaVuSans-41"/></g></g><g id="patch_9"><path d="M 340.213281 80.514687 L 360.213281 80.514687 L 360.213281 73.514687 L 340.213281 73.514687 z" style="fill:#91db57;fill-opacity:.5"/></g><g id="text_19"><g transform="translate(368.213281 80.514687)scale(0.1 -0.1)"><defs><path id="DejaVuSans-42" d="M 1259 2228 L 1259 519 L 2272 519 Q 2781 519 3026 730 Q 3272 941 3272 1375 Q 3272 1813 3026 2020 Q 2781 2228 2272 2228 L 1259 2228 z M 1259 4147 L 1259 2741 L 2194 2741 Q 2656 2741 2882 2914 Q 3109 3088 3109 3444 Q 3109 3797 2882 3972 Q 2656 4147 2194 4147 L 1259 4147 z M 628 4666 L 2241 4666 Q 2963 4666 3353 4366 Q 3744 4066 3744 3513 Q 3744 3084 3544 2831 Q 3344 2578 2956 2516 Q 3422 2416 3680 2098 Q 3938 1781 3938 1306 Q 3938 681 3513 340 Q 3088 0 2303 0 L 628 0 L 628 4666 z" transform="scale(0.015625)"/></defs><use xlink:href="#DejaVuSans-42"/></g></g><g id="patch_10"><path d="M 340.213281 95.192813 L 360.213281 95.192813 L 360.213281 88.192813 L 340.213281 88.192813 z" style="fill:#57d3db;fill-opacity:.5"/></g><g id="text_20"><g transform="translate(368.213281 95.192813)scale(0.1 -0.1)"><defs><path id="DejaVuSans-43" d="M 4122 4306 L 4122 3641 Q 3803 3938 3442 4084 Q 3081 4231 2675 4231 Q 1875 4231 1450 3742 Q 1025 3253 1025 2328 Q 1025 1406 1450 917 Q 1875 428 2675 428 Q 3081 428 3442 575 Q 3803 722 4122 1019 L 4122 359 Q 3791 134 3420 21 Q 3050 -91 2638 -91 Q 1578 -91 968 557 Q 359 1206 359 2328 Q 359 3453 968 4101 Q 1578 4750 2638 4750 Q 3056 4750 3426 4639 Q 3797 4528 4122 4306 z" transform="scale(0.015625)"/></defs><use xlink:href="#DejaVuSans-43"/></g></g><g id="patch_11"><path d="M 340.213281 109.870937 L 360.213281 109.870937 L 360.213281 102.870937 L 340.213281 102.870937 z" style="fill:#a157db;fill-opacity:.5"/></g><g id="text_21"><g transform="translate(368.213281 109.870937)scale(0.1 -0.1)"><use xlink:href="#DejaVuSans-44"/></g></g></g></g></g><defs><clipPath id="pff203f4f37"><rect width="334.8" height="217.44" x="54" y="34.56"/></clipPath></defs></svg>